<svg width="1200" height="272" viewBox="0 0 1200 272" fill="none" xmlns="http://www.w3.org/2000/svg">
<rect y="56" width="1200" height="216" fill="white"/>
<path d="M0 57V0L250 24V0L600 57L950 0V24L1200 0V57H0Z" fill="white"/>
<path d="M392.272 117.891C391.824 118.213 391.25 118.444 390.55 118.584C389.864 118.724 389.157 118.794 388.429 118.794C387.547 118.794 386.707 118.661 385.909 118.395C385.125 118.115 384.432 117.674 383.83 117.072C383.228 116.456 382.745 115.665 382.381 114.699C382.031 113.719 381.856 112.536 381.856 111.15C381.856 109.708 382.052 108.504 382.444 107.538C382.85 106.558 383.368 105.774 383.998 105.186C384.642 104.584 385.356 104.157 386.14 103.905C386.924 103.639 387.708 103.506 388.492 103.506C389.332 103.506 390.039 103.562 390.613 103.674C391.201 103.786 391.684 103.919 392.062 104.073L391.495 106.509C391.173 106.355 390.788 106.243 390.34 106.173C389.906 106.103 389.374 106.068 388.744 106.068C387.582 106.068 386.644 106.481 385.93 107.307C385.23 108.133 384.88 109.414 384.88 111.15C384.88 111.906 384.964 112.599 385.132 113.229C385.3 113.845 385.552 114.377 385.888 114.825C386.238 115.259 386.665 115.602 387.169 115.854C387.687 116.092 388.282 116.211 388.954 116.211C389.584 116.211 390.116 116.148 390.55 116.022C390.984 115.896 391.362 115.735 391.684 115.539L392.272 117.891ZM394.049 103.8H402.764V106.362H396.926V109.785H402.239V112.347H396.926V115.938H402.869V118.5H394.049V103.8ZM417.914 121.125H415.877L415.562 118.5H406.112L405.797 121.125H403.76V115.938H405.314C405.412 115.784 405.573 115.441 405.797 114.909C406.021 114.377 406.245 113.628 406.469 112.662C406.693 111.682 406.882 110.464 407.036 109.008C407.19 107.538 407.26 105.802 407.246 103.8H416.045V115.938H417.914V121.125ZM413.168 115.938V106.362H409.913C409.829 108.854 409.626 110.898 409.304 112.494C408.996 114.076 408.681 115.224 408.359 115.938H413.168ZM418.627 111.15C418.627 108.7 419.166 106.817 420.244 105.501C421.322 104.171 422.862 103.506 424.864 103.506C425.914 103.506 426.831 103.688 427.615 104.052C428.399 104.416 429.05 104.934 429.568 105.606C430.086 106.278 430.471 107.083 430.723 108.021C430.975 108.959 431.101 110.002 431.101 111.15C431.101 113.6 430.555 115.49 429.463 116.82C428.385 118.136 426.852 118.794 424.864 118.794C423.8 118.794 422.876 118.612 422.092 118.248C421.308 117.884 420.657 117.366 420.139 116.694C419.635 116.022 419.257 115.217 419.005 114.279C418.753 113.341 418.627 112.298 418.627 111.15ZM421.651 111.15C421.651 111.892 421.714 112.578 421.84 113.208C421.966 113.824 422.155 114.356 422.407 114.804C422.673 115.252 423.009 115.602 423.415 115.854C423.821 116.106 424.304 116.232 424.864 116.232C425.886 116.232 426.677 115.833 427.237 115.035C427.797 114.237 428.077 112.942 428.077 111.15C428.077 110.436 428.014 109.771 427.888 109.155C427.776 108.539 427.594 108 427.342 107.538C427.09 107.076 426.761 106.719 426.355 106.467C425.949 106.201 425.452 106.068 424.864 106.068C423.842 106.068 423.051 106.481 422.491 107.307C421.931 108.119 421.651 109.4 421.651 111.15ZM441.41 112.347H436.034V118.5H433.157V103.8H436.034V109.785H441.41V103.8H444.287V118.5H441.41V112.347ZM454.081 115.245H449.566L448.453 118.5H445.576L450.868 103.695H452.989L458.281 118.5H455.257L454.081 115.245ZM450.301 112.935H453.451L452.359 109.659L451.918 107.349H451.813L451.372 109.68L450.301 112.935ZM464.045 111.234H476.687V113.649H464.045V111.234ZM492.126 112.347H486.75V118.5H483.873V103.8H486.75V109.785H492.126V103.8H495.003V118.5H492.126V112.347ZM497.552 103.8H506.267V106.362H500.429V109.785H505.742V112.347H500.429V115.938H506.372V118.5H497.552V103.8ZM508.523 103.8H517.574V106.362H511.4V109.428C511.638 109.386 511.925 109.344 512.261 109.302C512.611 109.26 512.954 109.239 513.29 109.239C514.074 109.239 514.795 109.316 515.453 109.47C516.111 109.624 516.671 109.883 517.133 110.247C517.609 110.597 517.98 111.066 518.246 111.654C518.512 112.228 518.645 112.935 518.645 113.775C518.645 114.601 518.505 115.322 518.225 115.938C517.959 116.554 517.567 117.065 517.049 117.471C516.545 117.877 515.929 118.185 515.201 118.395C514.487 118.605 513.682 118.71 512.786 118.71C512.548 118.71 512.247 118.703 511.883 118.689C511.533 118.675 511.155 118.654 510.749 118.626C510.357 118.598 509.965 118.563 509.573 118.521C509.181 118.479 508.831 118.423 508.523 118.353V103.8ZM512.996 116.337C513.36 116.337 513.696 116.295 514.004 116.211C514.326 116.113 514.606 115.973 514.844 115.791C515.082 115.595 515.271 115.35 515.411 115.056C515.551 114.762 515.621 114.405 515.621 113.985C515.621 113.481 515.544 113.075 515.39 112.767C515.236 112.459 515.026 112.221 514.76 112.053C514.494 111.871 514.186 111.752 513.836 111.696C513.5 111.64 513.136 111.612 512.744 111.612C512.548 111.612 512.303 111.633 512.009 111.675C511.715 111.703 511.512 111.731 511.4 111.759V116.232C511.554 116.274 511.785 116.302 512.093 116.316C512.415 116.33 512.716 116.337 512.996 116.337ZM520.038 111.15C520.038 108.7 520.577 106.817 521.655 105.501C522.733 104.171 524.273 103.506 526.275 103.506C527.325 103.506 528.242 103.688 529.026 104.052C529.81 104.416 530.461 104.934 530.979 105.606C531.497 106.278 531.882 107.083 532.134 108.021C532.386 108.959 532.512 110.002 532.512 111.15C532.512 113.6 531.966 115.49 530.874 116.82C529.796 118.136 528.263 118.794 526.275 118.794C525.211 118.794 524.287 118.612 523.503 118.248C522.719 117.884 522.068 117.366 521.55 116.694C521.046 116.022 520.668 115.217 520.416 114.279C520.164 113.341 520.038 112.298 520.038 111.15ZM523.062 111.15C523.062 111.892 523.125 112.578 523.251 113.208C523.377 113.824 523.566 114.356 523.818 114.804C524.084 115.252 524.42 115.602 524.826 115.854C525.232 116.106 525.715 116.232 526.275 116.232C527.297 116.232 528.088 115.833 528.648 115.035C529.208 114.237 529.488 112.942 529.488 111.15C529.488 110.436 529.425 109.771 529.299 109.155C529.187 108.539 529.005 108 528.753 107.538C528.501 107.076 528.172 106.719 527.766 106.467C527.36 106.201 526.863 106.068 526.275 106.068C525.253 106.068 524.462 106.481 523.902 107.307C523.342 108.119 523.062 109.4 523.062 111.15ZM541.905 106.362H538.776C538.72 107.692 538.657 108.903 538.587 109.995C538.517 111.087 538.419 112.074 538.293 112.956C538.181 113.824 538.027 114.594 537.831 115.266C537.635 115.938 537.383 116.519 537.075 117.009C536.879 117.331 536.655 117.597 536.403 117.807C536.165 118.017 535.913 118.185 535.647 118.311C535.381 118.437 535.115 118.521 534.849 118.563C534.597 118.619 534.359 118.647 534.135 118.647C533.813 118.647 533.54 118.619 533.316 118.563C533.106 118.521 532.896 118.451 532.686 118.353L533.001 115.875C533.085 115.903 533.169 115.924 533.253 115.938C533.337 115.952 533.421 115.959 533.505 115.959C533.729 115.959 533.946 115.903 534.156 115.791C534.38 115.679 534.569 115.49 534.723 115.224C534.933 114.916 535.115 114.468 535.269 113.88C535.423 113.278 535.556 112.515 535.668 111.591C535.794 110.667 535.892 109.568 535.962 108.294C536.032 107.006 536.081 105.508 536.109 103.8H544.782V118.5H541.905V106.362ZM547.303 103.8H550.18V109.071C550.25 109.057 550.362 109.043 550.516 109.029C550.684 109.001 550.859 108.98 551.041 108.966C551.237 108.952 551.433 108.938 551.629 108.924C551.825 108.91 552.007 108.903 552.175 108.903C552.861 108.903 553.526 108.973 554.17 109.113C554.814 109.253 555.381 109.505 555.871 109.869C556.375 110.219 556.774 110.702 557.068 111.318C557.362 111.92 557.509 112.69 557.509 113.628C557.509 115.308 556.984 116.575 555.934 117.429C554.898 118.283 553.407 118.71 551.461 118.71C551.265 118.71 550.999 118.703 550.663 118.689C550.341 118.689 549.984 118.675 549.592 118.647C549.2 118.619 548.801 118.584 548.395 118.542C548.003 118.5 547.639 118.437 547.303 118.353V103.8ZM551.608 116.148C552 116.148 552.371 116.113 552.721 116.043C553.071 115.959 553.379 115.826 553.645 115.644C553.911 115.448 554.114 115.196 554.254 114.888C554.408 114.58 554.485 114.202 554.485 113.754C554.485 113.278 554.401 112.893 554.233 112.599C554.079 112.291 553.869 112.053 553.603 111.885C553.351 111.717 553.05 111.605 552.7 111.549C552.35 111.493 551.986 111.465 551.608 111.465C551.51 111.465 551.391 111.472 551.251 111.486C551.111 111.5 550.971 111.514 550.831 111.528C550.691 111.542 550.558 111.563 550.432 111.591C550.32 111.605 550.236 111.619 550.18 111.633V116.022C550.334 116.064 550.537 116.099 550.789 116.127C551.055 116.141 551.328 116.148 551.608 116.148ZM559.26 118.5V103.8H562.137V115.938H565.602V103.8H568.479V115.938H571.944V103.8H574.821V118.5H559.26ZM576.885 111.15C576.885 108.7 577.424 106.817 578.502 105.501C579.58 104.171 581.12 103.506 583.122 103.506C584.172 103.506 585.089 103.688 585.873 104.052C586.657 104.416 587.308 104.934 587.826 105.606C588.344 106.278 588.729 107.083 588.981 108.021C589.233 108.959 589.359 110.002 589.359 111.15C589.359 113.6 588.813 115.49 587.721 116.82C586.643 118.136 585.11 118.794 583.122 118.794C582.058 118.794 581.134 118.612 580.35 118.248C579.566 117.884 578.915 117.366 578.397 116.694C577.893 116.022 577.515 115.217 577.263 114.279C577.011 113.341 576.885 112.298 576.885 111.15ZM579.909 111.15C579.909 111.892 579.972 112.578 580.098 113.208C580.224 113.824 580.413 114.356 580.665 114.804C580.931 115.252 581.267 115.602 581.673 115.854C582.079 116.106 582.562 116.232 583.122 116.232C584.144 116.232 584.935 115.833 585.495 115.035C586.055 114.237 586.335 112.942 586.335 111.15C586.335 110.436 586.272 109.771 586.146 109.155C586.034 108.539 585.852 108 585.6 107.538C585.348 107.076 585.019 106.719 584.613 106.467C584.207 106.201 583.71 106.068 583.122 106.068C582.1 106.068 581.309 106.481 580.749 107.307C580.189 108.119 579.909 109.4 579.909 111.15ZM599.984 110.352L600.152 108.441H600.047L599.06 110.415L593.579 118.5H591.416V103.8H594.293V111.801L594.083 113.775H594.209L595.238 111.738L600.719 103.8H602.861V118.5H599.984V110.352ZM595.889 100.146C595.945 100.594 596.106 100.916 596.372 101.112C596.652 101.308 597.009 101.406 597.443 101.406C598.381 101.406 598.899 100.993 598.997 100.167L601.328 100.524C601.174 101.406 600.768 102.05 600.11 102.456C599.466 102.862 598.57 103.065 597.422 103.065C596.848 103.065 596.323 103.023 595.847 102.939C595.371 102.855 594.951 102.722 594.587 102.54C594.237 102.344 593.943 102.085 593.705 101.763C593.481 101.441 593.341 101.042 593.285 100.566L595.889 100.146ZM619.261 106.362H613.591V118.5H610.714V103.8H619.261V106.362ZM619.419 111.15C619.419 108.7 619.958 106.817 621.036 105.501C622.114 104.171 623.654 103.506 625.656 103.506C626.706 103.506 627.623 103.688 628.407 104.052C629.191 104.416 629.842 104.934 630.36 105.606C630.878 106.278 631.263 107.083 631.515 108.021C631.767 108.959 631.893 110.002 631.893 111.15C631.893 113.6 631.347 115.49 630.255 116.82C629.177 118.136 627.644 118.794 625.656 118.794C624.592 118.794 623.668 118.612 622.884 118.248C622.1 117.884 621.449 117.366 620.931 116.694C620.427 116.022 620.049 115.217 619.797 114.279C619.545 113.341 619.419 112.298 619.419 111.15ZM622.443 111.15C622.443 111.892 622.506 112.578 622.632 113.208C622.758 113.824 622.947 114.356 623.199 114.804C623.465 115.252 623.801 115.602 624.207 115.854C624.613 116.106 625.096 116.232 625.656 116.232C626.678 116.232 627.469 115.833 628.029 115.035C628.589 114.237 628.869 112.942 628.869 111.15C628.869 110.436 628.806 109.771 628.68 109.155C628.568 108.539 628.386 108 628.134 107.538C627.882 107.076 627.553 106.719 627.147 106.467C626.741 106.201 626.244 106.068 625.656 106.068C624.634 106.068 623.843 106.481 623.283 107.307C622.723 108.119 622.443 109.4 622.443 111.15ZM633.949 103.947C634.537 103.835 635.181 103.751 635.881 103.695C636.595 103.625 637.302 103.59 638.002 103.59C638.73 103.59 639.458 103.653 640.186 103.779C640.928 103.891 641.593 104.129 642.181 104.493C642.769 104.843 643.245 105.34 643.609 105.984C643.987 106.614 644.176 107.44 644.176 108.462C644.176 109.386 644.015 110.17 643.693 110.814C643.371 111.444 642.944 111.962 642.412 112.368C641.88 112.774 641.271 113.068 640.585 113.25C639.913 113.432 639.213 113.523 638.485 113.523C638.415 113.523 638.303 113.523 638.149 113.523C637.995 113.523 637.834 113.523 637.666 113.523C637.498 113.509 637.33 113.495 637.162 113.481C637.008 113.467 636.896 113.453 636.826 113.439V118.5H633.949V103.947ZM638.233 106.068C637.953 106.068 637.687 106.082 637.435 106.11C637.183 106.124 636.98 106.145 636.826 106.173V110.94C636.882 110.954 636.966 110.968 637.078 110.982C637.19 110.996 637.309 111.01 637.435 111.024C637.561 111.024 637.68 111.024 637.792 111.024C637.918 111.024 638.009 111.024 638.065 111.024C638.443 111.024 638.814 110.989 639.178 110.919C639.556 110.849 639.892 110.723 640.186 110.541C640.48 110.345 640.711 110.079 640.879 109.743C641.061 109.407 641.152 108.966 641.152 108.42C641.152 107.958 641.068 107.58 640.9 107.286C640.732 106.978 640.508 106.733 640.228 106.551C639.962 106.369 639.654 106.243 639.304 106.173C638.954 106.103 638.597 106.068 638.233 106.068ZM645.279 111.15C645.279 108.7 645.818 106.817 646.896 105.501C647.974 104.171 649.514 103.506 651.516 103.506C652.566 103.506 653.483 103.688 654.267 104.052C655.051 104.416 655.702 104.934 656.22 105.606C656.738 106.278 657.123 107.083 657.375 108.021C657.627 108.959 657.753 110.002 657.753 111.15C657.753 113.6 657.207 115.49 656.115 116.82C655.037 118.136 653.504 118.794 651.516 118.794C650.452 118.794 649.528 118.612 648.744 118.248C647.96 117.884 647.309 117.366 646.791 116.694C646.287 116.022 645.909 115.217 645.657 114.279C645.405 113.341 645.279 112.298 645.279 111.15ZM648.303 111.15C648.303 111.892 648.366 112.578 648.492 113.208C648.618 113.824 648.807 114.356 649.059 114.804C649.325 115.252 649.661 115.602 650.067 115.854C650.473 116.106 650.956 116.232 651.516 116.232C652.538 116.232 653.329 115.833 653.889 115.035C654.449 114.237 654.729 112.942 654.729 111.15C654.729 110.436 654.666 109.771 654.54 109.155C654.428 108.539 654.246 108 653.994 107.538C653.742 107.076 653.413 106.719 653.007 106.467C652.601 106.201 652.104 106.068 651.516 106.068C650.494 106.068 649.703 106.481 649.143 107.307C648.583 108.119 648.303 109.4 648.303 111.15ZM672.314 121.125H670.277L669.962 118.5H660.512L660.197 121.125H658.16V115.938H659.714C659.812 115.784 659.973 115.441 660.197 114.909C660.421 114.377 660.645 113.628 660.869 112.662C661.093 111.682 661.282 110.464 661.436 109.008C661.59 107.538 661.66 105.802 661.646 103.8H670.445V115.938H672.314V121.125ZM667.568 115.938V106.362H664.313C664.229 108.854 664.026 110.898 663.704 112.494C663.396 114.076 663.081 115.224 662.759 115.938H667.568ZM673.026 111.15C673.026 108.7 673.565 106.817 674.643 105.501C675.721 104.171 677.261 103.506 679.263 103.506C680.313 103.506 681.23 103.688 682.014 104.052C682.798 104.416 683.449 104.934 683.967 105.606C684.485 106.278 684.87 107.083 685.122 108.021C685.374 108.959 685.5 110.002 685.5 111.15C685.5 113.6 684.954 115.49 683.862 116.82C682.784 118.136 681.251 118.794 679.263 118.794C678.199 118.794 677.275 118.612 676.491 118.248C675.707 117.884 675.056 117.366 674.538 116.694C674.034 116.022 673.656 115.217 673.404 114.279C673.152 113.341 673.026 112.298 673.026 111.15ZM676.05 111.15C676.05 111.892 676.113 112.578 676.239 113.208C676.365 113.824 676.554 114.356 676.806 114.804C677.072 115.252 677.408 115.602 677.814 115.854C678.22 116.106 678.703 116.232 679.263 116.232C680.285 116.232 681.076 115.833 681.636 115.035C682.196 114.237 682.476 112.942 682.476 111.15C682.476 110.436 682.413 109.771 682.287 109.155C682.175 108.539 681.993 108 681.741 107.538C681.489 107.076 681.16 106.719 680.754 106.467C680.348 106.201 679.851 106.068 679.263 106.068C678.241 106.068 677.45 106.481 676.89 107.307C676.33 108.119 676.05 109.4 676.05 111.15ZM691.189 112.221H690.433V118.5H687.556V103.8H690.433V110.31L691.105 110.016L695.158 103.8H698.434L694.15 109.974L693.016 110.772L694.192 111.591L699.085 118.5H695.536L691.189 112.221ZM715.433 107.223C715.433 107.587 715.384 107.951 715.286 108.315C715.202 108.679 715.055 109.015 714.845 109.323C714.635 109.617 714.362 109.883 714.026 110.121C713.69 110.345 713.284 110.513 712.808 110.625V110.751C713.228 110.821 713.627 110.94 714.005 111.108C714.383 111.276 714.712 111.507 714.992 111.801C715.272 112.095 715.489 112.452 715.643 112.872C715.811 113.292 715.895 113.789 715.895 114.363C715.895 115.119 715.734 115.777 715.412 116.337C715.09 116.883 714.656 117.331 714.11 117.681C713.578 118.031 712.969 118.29 712.283 118.458C711.597 118.626 710.89 118.71 710.162 118.71C709.924 118.71 709.616 118.71 709.238 118.71C708.874 118.71 708.475 118.696 708.041 118.668C707.621 118.654 707.187 118.626 706.739 118.584C706.305 118.542 705.906 118.479 705.542 118.395V103.905C705.808 103.863 706.109 103.821 706.445 103.779C706.795 103.737 707.166 103.702 707.558 103.674C707.95 103.646 708.349 103.625 708.755 103.611C709.175 103.597 709.588 103.59 709.994 103.59C710.68 103.59 711.345 103.646 711.989 103.758C712.647 103.856 713.228 104.038 713.732 104.304C714.25 104.57 714.663 104.941 714.971 105.417C715.279 105.893 715.433 106.495 715.433 107.223ZM710.183 116.337C710.533 116.337 710.869 116.295 711.191 116.211C711.527 116.127 711.821 116.001 712.073 115.833C712.325 115.651 712.528 115.427 712.682 115.161C712.836 114.895 712.913 114.58 712.913 114.216C712.913 113.754 712.822 113.39 712.64 113.124C712.458 112.858 712.22 112.655 711.926 112.515C711.632 112.361 711.303 112.263 710.939 112.221C710.575 112.179 710.211 112.158 709.847 112.158H708.314V116.211C708.384 116.239 708.496 116.26 708.65 116.274C708.804 116.288 708.965 116.302 709.133 116.316C709.315 116.316 709.497 116.323 709.679 116.337C709.875 116.337 710.043 116.337 710.183 116.337ZM709.238 109.974C709.434 109.974 709.658 109.967 709.91 109.953C710.176 109.939 710.393 109.918 710.561 109.89C711.093 109.722 711.548 109.47 711.926 109.134C712.318 108.798 712.514 108.357 712.514 107.811C712.514 107.447 712.444 107.146 712.304 106.908C712.164 106.67 711.975 106.481 711.737 106.341C711.513 106.201 711.254 106.103 710.96 106.047C710.666 105.991 710.358 105.963 710.036 105.963C709.672 105.963 709.336 105.97 709.028 105.984C708.72 105.998 708.482 106.019 708.314 106.047V109.974H709.238ZM729.665 115.245H725.15L724.037 118.5H721.16L726.452 103.695H728.573L733.865 118.5H730.841L729.665 115.245ZM725.885 112.935H729.035L727.943 109.659L727.502 107.349H727.397L726.956 109.68L725.885 112.935ZM735.135 103.947C735.723 103.835 736.367 103.751 737.067 103.695C737.781 103.625 738.488 103.59 739.188 103.59C739.916 103.59 740.644 103.653 741.372 103.779C742.114 103.891 742.779 104.129 743.367 104.493C743.955 104.843 744.431 105.34 744.795 105.984C745.173 106.614 745.362 107.44 745.362 108.462C745.362 109.386 745.201 110.17 744.879 110.814C744.557 111.444 744.13 111.962 743.598 112.368C743.066 112.774 742.457 113.068 741.771 113.25C741.099 113.432 740.399 113.523 739.671 113.523C739.601 113.523 739.489 113.523 739.335 113.523C739.181 113.523 739.02 113.523 738.852 113.523C738.684 113.509 738.516 113.495 738.348 113.481C738.194 113.467 738.082 113.453 738.012 113.439V118.5H735.135V103.947ZM739.419 106.068C739.139 106.068 738.873 106.082 738.621 106.11C738.369 106.124 738.166 106.145 738.012 106.173V110.94C738.068 110.954 738.152 110.968 738.264 110.982C738.376 110.996 738.495 111.01 738.621 111.024C738.747 111.024 738.866 111.024 738.978 111.024C739.104 111.024 739.195 111.024 739.251 111.024C739.629 111.024 740 110.989 740.364 110.919C740.742 110.849 741.078 110.723 741.372 110.541C741.666 110.345 741.897 110.079 742.065 109.743C742.247 109.407 742.338 108.966 742.338 108.42C742.338 107.958 742.254 107.58 742.086 107.286C741.918 106.978 741.694 106.733 741.414 106.551C741.148 106.369 740.84 106.243 740.49 106.173C740.14 106.103 739.783 106.068 739.419 106.068ZM755.72 110.352L755.888 108.441H755.783L754.796 110.415L749.315 118.5H747.152V103.8H750.029V111.801L749.819 113.775H749.945L750.974 111.738L756.455 103.8H758.597V118.5H755.72V110.352ZM762.398 111.99V109.743H762.902C763.028 109.743 763.182 109.743 763.364 109.743C763.546 109.743 763.728 109.743 763.91 109.743C764.106 109.729 764.295 109.715 764.477 109.701C764.659 109.673 764.806 109.645 764.918 109.617C765.408 109.505 765.828 109.309 766.178 109.029C766.528 108.735 766.703 108.343 766.703 107.853C766.703 107.181 766.486 106.726 766.052 106.488C765.632 106.236 765.072 106.11 764.372 106.11C763.742 106.11 763.154 106.194 762.608 106.362C762.062 106.53 761.649 106.691 761.369 106.845L760.634 104.409C760.788 104.325 761.005 104.234 761.285 104.136C761.579 104.038 761.908 103.947 762.272 103.863C762.65 103.765 763.056 103.688 763.49 103.632C763.924 103.576 764.365 103.548 764.813 103.548C765.429 103.548 766.031 103.604 766.619 103.716C767.207 103.828 767.732 104.024 768.194 104.304C768.656 104.584 769.027 104.962 769.307 105.438C769.587 105.9 769.727 106.495 769.727 107.223C769.727 107.951 769.531 108.623 769.139 109.239C768.761 109.855 768.145 110.303 767.291 110.583V110.688C768.201 110.87 768.908 111.262 769.412 111.864C769.93 112.466 770.189 113.271 770.189 114.279C770.189 115.077 770.028 115.763 769.706 116.337C769.384 116.897 768.957 117.359 768.425 117.723C767.907 118.087 767.305 118.353 766.619 118.521C765.933 118.703 765.233 118.794 764.519 118.794C763.595 118.794 762.755 118.717 761.999 118.563C761.243 118.409 760.662 118.227 760.256 118.017L760.991 115.518C761.313 115.672 761.775 115.833 762.377 116.001C762.979 116.155 763.693 116.232 764.519 116.232C764.827 116.232 765.135 116.197 765.443 116.127C765.765 116.043 766.052 115.917 766.304 115.749C766.556 115.567 766.759 115.336 766.913 115.056C767.067 114.776 767.144 114.44 767.144 114.048C767.144 113.39 766.899 112.893 766.409 112.557C765.919 112.221 765.044 112.039 763.784 112.011C763.616 111.997 763.49 111.99 763.406 111.99C763.322 111.99 763.175 111.99 762.965 111.99H762.398ZM771.73 111.15C771.73 108.7 772.269 106.817 773.347 105.501C774.425 104.171 775.965 103.506 777.967 103.506C779.017 103.506 779.934 103.688 780.718 104.052C781.502 104.416 782.153 104.934 782.671 105.606C783.189 106.278 783.574 107.083 783.826 108.021C784.078 108.959 784.204 110.002 784.204 111.15C784.204 113.6 783.658 115.49 782.566 116.82C781.488 118.136 779.955 118.794 777.967 118.794C776.903 118.794 775.979 118.612 775.195 118.248C774.411 117.884 773.76 117.366 773.242 116.694C772.738 116.022 772.36 115.217 772.108 114.279C771.856 113.341 771.73 112.298 771.73 111.15ZM774.754 111.15C774.754 111.892 774.817 112.578 774.943 113.208C775.069 113.824 775.258 114.356 775.51 114.804C775.776 115.252 776.112 115.602 776.518 115.854C776.924 116.106 777.407 116.232 777.967 116.232C778.989 116.232 779.78 115.833 780.34 115.035C780.9 114.237 781.18 112.942 781.18 111.15C781.18 110.436 781.117 109.771 780.991 109.155C780.879 108.539 780.697 108 780.445 107.538C780.193 107.076 779.864 106.719 779.458 106.467C779.052 106.201 778.555 106.068 777.967 106.068C776.945 106.068 776.154 106.481 775.594 107.307C775.034 108.119 774.754 109.4 774.754 111.15ZM794.513 112.347H789.137V118.5H786.26V103.8H789.137V109.785H794.513V103.8H797.39V118.5H794.513V112.347ZM799.939 103.8H808.654V106.362H802.816V109.785H808.129V112.347H802.816V115.938H808.759V118.5H799.939V103.8ZM810.533 117.156C810.533 116.68 810.687 116.302 810.995 116.022C811.317 115.742 811.709 115.602 812.171 115.602C812.759 115.602 813.221 115.798 813.557 116.19C813.893 116.582 814.061 117.1 814.061 117.744C814.061 118.374 813.963 118.913 813.767 119.361C813.571 119.823 813.326 120.201 813.032 120.495C812.752 120.803 812.444 121.041 812.108 121.209C811.786 121.391 811.492 121.524 811.226 121.608L810.428 120.474C810.806 120.32 811.135 120.068 811.415 119.718C811.695 119.368 811.849 118.997 811.877 118.605C811.555 118.647 811.247 118.549 810.953 118.311C810.673 118.073 810.533 117.688 810.533 117.156ZM452.208 138.99V136.743H452.712C452.838 136.743 452.992 136.743 453.174 136.743C453.356 136.743 453.538 136.743 453.72 136.743C453.916 136.729 454.105 136.715 454.287 136.701C454.469 136.673 454.616 136.645 454.728 136.617C455.218 136.505 455.638 136.309 455.988 136.029C456.338 135.735 456.513 135.343 456.513 134.853C456.513 134.181 456.296 133.726 455.861 133.488C455.441 133.236 454.882 133.11 454.182 133.11C453.552 133.11 452.964 133.194 452.418 133.362C451.872 133.53 451.459 133.691 451.179 133.845L450.444 131.409C450.598 131.325 450.815 131.234 451.095 131.136C451.389 131.038 451.718 130.947 452.082 130.863C452.46 130.765 452.866 130.688 453.3 130.632C453.734 130.576 454.175 130.548 454.623 130.548C455.239 130.548 455.841 130.604 456.429 130.716C457.017 130.828 457.542 131.024 458.004 131.304C458.466 131.584 458.837 131.962 459.117 132.438C459.397 132.9 459.537 133.495 459.537 134.223C459.537 134.951 459.341 135.623 458.949 136.239C458.571 136.855 457.955 137.303 457.101 137.583V137.688C458.011 137.87 458.718 138.262 459.222 138.864C459.74 139.466 459.999 140.271 459.999 141.279C459.999 142.077 459.838 142.763 459.516 143.337C459.194 143.897 458.767 144.359 458.235 144.723C457.717 145.087 457.115 145.353 456.429 145.521C455.743 145.703 455.043 145.794 454.329 145.794C453.405 145.794 452.565 145.717 451.809 145.563C451.053 145.409 450.472 145.227 450.066 145.017L450.801 142.518C451.123 142.672 451.585 142.833 452.187 143.001C452.789 143.155 453.503 143.232 454.329 143.232C454.637 143.232 454.945 143.197 455.253 143.127C455.575 143.043 455.862 142.917 456.114 142.749C456.366 142.567 456.569 142.336 456.723 142.056C456.877 141.776 456.954 141.44 456.954 141.048C456.954 140.39 456.709 139.893 456.219 139.557C455.729 139.221 454.854 139.039 453.594 139.011C453.426 138.997 453.3 138.99 453.216 138.99C453.132 138.99 452.985 138.99 452.774 138.99H452.208ZM469.246 142.245H464.731L463.618 145.5H460.741L466.033 130.695H468.154L473.446 145.5H470.422L469.246 142.245ZM465.466 139.935H468.616L467.524 136.659L467.083 134.349H466.978L466.537 136.68L465.466 139.935ZM484.014 144.891C483.566 145.213 482.992 145.444 482.292 145.584C481.606 145.724 480.899 145.794 480.171 145.794C479.289 145.794 478.449 145.661 477.651 145.395C476.867 145.115 476.174 144.674 475.572 144.072C474.97 143.456 474.487 142.665 474.123 141.699C473.773 140.719 473.598 139.536 473.598 138.15C473.598 136.708 473.794 135.504 474.186 134.538C474.592 133.558 475.11 132.774 475.74 132.186C476.384 131.584 477.098 131.157 477.882 130.905C478.666 130.639 479.45 130.506 480.234 130.506C481.074 130.506 481.781 130.562 482.355 130.674C482.943 130.786 483.426 130.919 483.804 131.073L483.237 133.509C482.915 133.355 482.53 133.243 482.082 133.173C481.648 133.103 481.116 133.068 480.486 133.068C479.324 133.068 478.386 133.481 477.672 134.307C476.972 135.133 476.622 136.414 476.622 138.15C476.622 138.906 476.706 139.599 476.874 140.229C477.042 140.845 477.294 141.377 477.63 141.825C477.98 142.259 478.407 142.602 478.911 142.854C479.429 143.092 480.024 143.211 480.696 143.211C481.326 143.211 481.858 143.148 482.292 143.022C482.726 142.896 483.104 142.735 483.426 142.539L484.014 144.891ZM493.681 133.362H490.552C490.496 134.692 490.433 135.903 490.363 136.995C490.293 138.087 490.195 139.074 490.069 139.956C489.957 140.824 489.803 141.594 489.607 142.266C489.411 142.938 489.159 143.519 488.851 144.009C488.655 144.331 488.431 144.597 488.179 144.807C487.941 145.017 487.689 145.185 487.423 145.311C487.157 145.437 486.891 145.521 486.625 145.563C486.373 145.619 486.135 145.647 485.911 145.647C485.589 145.647 485.316 145.619 485.092 145.563C484.882 145.521 484.672 145.451 484.462 145.353L484.777 142.875C484.861 142.903 484.945 142.924 485.029 142.938C485.113 142.952 485.197 142.959 485.281 142.959C485.505 142.959 485.722 142.903 485.932 142.791C486.156 142.679 486.345 142.49 486.499 142.224C486.709 141.916 486.891 141.468 487.045 140.88C487.199 140.278 487.332 139.515 487.444 138.591C487.57 137.667 487.668 136.568 487.738 135.294C487.808 134.006 487.857 132.508 487.885 130.8H496.558V145.5H493.681V133.362ZM503.993 137.289L504.413 139.2H504.539L504.875 137.226L507.08 130.8H510.041L506.135 140.964C505.827 141.762 505.526 142.455 505.232 143.043C504.952 143.631 504.644 144.121 504.308 144.513C503.986 144.891 503.622 145.178 503.216 145.374C502.81 145.556 502.334 145.647 501.788 145.647C501.326 145.647 500.948 145.612 500.654 145.542C500.374 145.486 500.066 145.353 499.73 145.143L500.465 142.812C500.703 142.938 500.92 143.015 501.116 143.043C501.312 143.071 501.522 143.085 501.746 143.085C502.404 143.085 502.866 142.567 503.132 141.531L497.63 130.8H501.011L503.993 137.289ZM516.469 130.8H519.199V137.331L519.934 137.037L522.979 130.8H526.213L522.79 137.247L521.803 137.961L523 138.843L526.864 145.5H523.399L520.018 139.116H519.199V145.5H516.469V138.864L515.713 139.158L512.332 145.5H508.972L512.815 139.053L513.949 138.234L512.857 137.457L509.266 130.8H512.605L515.65 137.079H516.469V130.8ZM536.563 137.352L536.731 135.441H536.626L535.639 137.415L530.158 145.5H527.995V130.8H530.872V138.801L530.662 140.775H530.788L531.817 138.738L537.298 130.8H539.44V145.5H536.563V137.352ZM551.873 134.223C551.873 134.587 551.824 134.951 551.726 135.315C551.642 135.679 551.495 136.015 551.285 136.323C551.075 136.617 550.802 136.883 550.466 137.121C550.13 137.345 549.724 137.513 549.248 137.625V137.751C549.668 137.821 550.067 137.94 550.445 138.108C550.823 138.276 551.152 138.507 551.432 138.801C551.712 139.095 551.929 139.452 552.083 139.872C552.251 140.292 552.335 140.789 552.335 141.363C552.335 142.119 552.174 142.777 551.852 143.337C551.53 143.883 551.096 144.331 550.55 144.681C550.018 145.031 549.409 145.29 548.723 145.458C548.037 145.626 547.33 145.71 546.602 145.71C546.364 145.71 546.056 145.71 545.678 145.71C545.314 145.71 544.915 145.696 544.481 145.668C544.061 145.654 543.627 145.626 543.179 145.584C542.745 145.542 542.346 145.479 541.982 145.395V130.905C542.248 130.863 542.549 130.821 542.885 130.779C543.235 130.737 543.606 130.702 543.998 130.674C544.39 130.646 544.789 130.625 545.195 130.611C545.615 130.597 546.028 130.59 546.434 130.59C547.12 130.59 547.785 130.646 548.429 130.758C549.087 130.856 549.668 131.038 550.172 131.304C550.69 131.57 551.103 131.941 551.411 132.417C551.719 132.893 551.873 133.495 551.873 134.223ZM546.623 143.337C546.973 143.337 547.309 143.295 547.631 143.211C547.967 143.127 548.261 143.001 548.513 142.833C548.765 142.651 548.968 142.427 549.122 142.161C549.276 141.895 549.353 141.58 549.353 141.216C549.353 140.754 549.262 140.39 549.08 140.124C548.898 139.858 548.66 139.655 548.366 139.515C548.072 139.361 547.743 139.263 547.379 139.221C547.015 139.179 546.651 139.158 546.287 139.158H544.754V143.211C544.824 143.239 544.936 143.26 545.09 143.274C545.244 143.288 545.405 143.302 545.573 143.316C545.755 143.316 545.937 143.323 546.119 143.337C546.315 143.337 546.483 143.337 546.623 143.337ZM545.678 136.974C545.874 136.974 546.098 136.967 546.35 136.953C546.616 136.939 546.833 136.918 547.001 136.89C547.533 136.722 547.988 136.47 548.366 136.134C548.758 135.798 548.954 135.357 548.954 134.811C548.954 134.447 548.884 134.146 548.744 133.908C548.604 133.67 548.415 133.481 548.177 133.341C547.953 133.201 547.694 133.103 547.4 133.047C547.106 132.991 546.798 132.963 546.476 132.963C546.112 132.963 545.776 132.97 545.468 132.984C545.16 132.998 544.922 133.019 544.754 133.047V136.974H545.678ZM561.634 142.245H557.119L556.006 145.5H553.129L558.421 130.695H560.542L565.834 145.5H562.81L561.634 142.245ZM557.854 139.935H561.004L559.912 136.659L559.471 134.349H559.366L558.925 136.68L557.854 139.935ZM569.981 136.785H571.934C572.116 134.783 572.704 133.236 573.698 132.144C574.692 131.052 576.085 130.506 577.877 130.506C578.941 130.506 579.851 130.688 580.607 131.052C581.363 131.416 581.979 131.934 582.455 132.606C582.945 133.278 583.302 134.083 583.526 135.021C583.764 135.959 583.883 137.002 583.883 138.15C583.883 140.6 583.379 142.49 582.371 143.82C581.363 145.136 579.865 145.794 577.877 145.794C576.953 145.794 576.134 145.64 575.42 145.332C574.72 145.024 574.125 144.59 573.635 144.03C573.145 143.47 572.76 142.791 572.48 141.993C572.2 141.195 572.018 140.313 571.934 139.347H569.981V145.5H567.104V130.8H569.981V136.785ZM574.874 138.15C574.874 138.892 574.923 139.578 575.021 140.208C575.133 140.824 575.301 141.356 575.525 141.804C575.763 142.252 576.071 142.602 576.449 142.854C576.841 143.106 577.317 143.232 577.877 143.232C578.899 143.232 579.648 142.833 580.124 142.035C580.614 141.237 580.859 139.942 580.859 138.15C580.859 137.436 580.81 136.771 580.712 136.155C580.628 135.539 580.474 135 580.25 134.538C580.026 134.076 579.718 133.719 579.326 133.467C578.948 133.201 578.465 133.068 577.877 133.068C576.869 133.068 576.113 133.481 575.609 134.307C575.119 135.119 574.874 136.4 574.874 138.15ZM585.95 145.5V130.8H588.827V142.938H592.292V130.8H595.169V142.938H598.634V130.8H601.511V142.938H603.443V148.125H601.427L601.112 145.5H585.95ZM613.652 137.352L613.82 135.441H613.715L612.728 137.415L607.247 145.5H605.084V130.8H607.961V138.801L607.751 140.775H607.877L608.906 138.738L614.387 130.8H616.529V145.5H613.652V137.352ZM627.639 137.352L627.807 135.441H627.702L626.715 137.415L621.234 145.5H619.071V130.8H621.948V138.801L621.738 140.775H621.864L622.893 138.738L628.374 130.8H630.516V145.5H627.639V137.352ZM623.544 127.146C623.6 127.594 623.761 127.916 624.027 128.112C624.307 128.308 624.664 128.406 625.098 128.406C626.036 128.406 626.554 127.993 626.652 127.167L628.983 127.524C628.829 128.406 628.423 129.05 627.765 129.456C627.121 129.862 626.225 130.065 625.077 130.065C624.503 130.065 623.978 130.023 623.502 129.939C623.026 129.855 622.606 129.722 622.242 129.54C621.892 129.344 621.598 129.085 621.36 128.763C621.136 128.441 620.996 128.042 620.94 127.566L623.544 127.146ZM638.368 130.8H647.419V133.362H641.245V136.428C641.483 136.386 641.77 136.344 642.106 136.302C642.456 136.26 642.799 136.239 643.135 136.239C643.919 136.239 644.64 136.316 645.298 136.47C645.956 136.624 646.516 136.883 646.978 137.247C647.454 137.597 647.825 138.066 648.091 138.654C648.357 139.228 648.49 139.935 648.49 140.775C648.49 141.601 648.35 142.322 648.07 142.938C647.804 143.554 647.412 144.065 646.894 144.471C646.39 144.877 645.774 145.185 645.046 145.395C644.332 145.605 643.527 145.71 642.631 145.71C642.393 145.71 642.092 145.703 641.728 145.689C641.378 145.675 641 145.654 640.594 145.626C640.202 145.598 639.81 145.563 639.418 145.521C639.026 145.479 638.676 145.423 638.368 145.353V130.8ZM642.841 143.337C643.205 143.337 643.541 143.295 643.849 143.211C644.171 143.113 644.451 142.973 644.689 142.791C644.927 142.595 645.116 142.35 645.256 142.056C645.396 141.762 645.466 141.405 645.466 140.985C645.466 140.481 645.389 140.075 645.235 139.767C645.081 139.459 644.871 139.221 644.605 139.053C644.339 138.871 644.031 138.752 643.681 138.696C643.345 138.64 642.981 138.612 642.589 138.612C642.393 138.612 642.148 138.633 641.854 138.675C641.56 138.703 641.357 138.731 641.245 138.759V143.232C641.399 143.274 641.63 143.302 641.938 143.316C642.26 143.33 642.561 143.337 642.841 143.337ZM649.883 138.15C649.883 135.7 650.422 133.817 651.5 132.501C652.578 131.171 654.118 130.506 656.12 130.506C657.17 130.506 658.087 130.688 658.871 131.052C659.655 131.416 660.306 131.934 660.824 132.606C661.342 133.278 661.727 134.083 661.979 135.021C662.231 135.959 662.357 137.002 662.357 138.15C662.357 140.6 661.811 142.49 660.719 143.82C659.641 145.136 658.108 145.794 656.12 145.794C655.056 145.794 654.132 145.612 653.348 145.248C652.564 144.884 651.913 144.366 651.395 143.694C650.891 143.022 650.513 142.217 650.261 141.279C650.009 140.341 649.883 139.298 649.883 138.15ZM652.907 138.15C652.907 138.892 652.97 139.578 653.096 140.208C653.222 140.824 653.411 141.356 653.663 141.804C653.929 142.252 654.265 142.602 654.671 142.854C655.077 143.106 655.56 143.232 656.12 143.232C657.142 143.232 657.933 142.833 658.493 142.035C659.053 141.237 659.333 139.942 659.333 138.15C659.333 137.436 659.27 136.771 659.144 136.155C659.032 135.539 658.85 135 658.598 134.538C658.346 134.076 658.017 133.719 657.611 133.467C657.205 133.201 656.708 133.068 656.12 133.068C655.098 133.068 654.307 133.481 653.747 134.307C653.187 135.119 652.907 136.4 652.907 138.15ZM671.751 133.362H668.622C668.566 134.692 668.503 135.903 668.433 136.995C668.363 138.087 668.265 139.074 668.139 139.956C668.027 140.824 667.873 141.594 667.677 142.266C667.481 142.938 667.229 143.519 666.921 144.009C666.725 144.331 666.501 144.597 666.249 144.807C666.011 145.017 665.759 145.185 665.493 145.311C665.227 145.437 664.961 145.521 664.695 145.563C664.443 145.619 664.205 145.647 663.981 145.647C663.659 145.647 663.386 145.619 663.162 145.563C662.952 145.521 662.742 145.451 662.532 145.353L662.847 142.875C662.931 142.903 663.015 142.924 663.099 142.938C663.183 142.952 663.267 142.959 663.351 142.959C663.575 142.959 663.792 142.903 664.002 142.791C664.226 142.679 664.415 142.49 664.569 142.224C664.779 141.916 664.961 141.468 665.115 140.88C665.269 140.278 665.402 139.515 665.514 138.591C665.64 137.667 665.738 136.568 665.808 135.294C665.878 134.006 665.927 132.508 665.955 130.8H674.628V145.5H671.751V133.362ZM677.149 130.8H680.026V136.071C680.096 136.057 680.208 136.043 680.362 136.029C680.53 136.001 680.705 135.98 680.887 135.966C681.083 135.952 681.279 135.938 681.475 135.924C681.671 135.91 681.853 135.903 682.021 135.903C682.707 135.903 683.372 135.973 684.016 136.113C684.66 136.253 685.227 136.505 685.717 136.869C686.221 137.219 686.62 137.702 686.914 138.318C687.208 138.92 687.355 139.69 687.355 140.628C687.355 142.308 686.83 143.575 685.78 144.429C684.744 145.283 683.253 145.71 681.307 145.71C681.111 145.71 680.845 145.703 680.509 145.689C680.187 145.689 679.83 145.675 679.438 145.647C679.046 145.619 678.647 145.584 678.241 145.542C677.849 145.5 677.485 145.437 677.149 145.353V130.8ZM681.454 143.148C681.846 143.148 682.217 143.113 682.567 143.043C682.917 142.959 683.225 142.826 683.491 142.644C683.757 142.448 683.96 142.196 684.1 141.888C684.254 141.58 684.331 141.202 684.331 140.754C684.331 140.278 684.247 139.893 684.079 139.599C683.925 139.291 683.715 139.053 683.449 138.885C683.197 138.717 682.896 138.605 682.546 138.549C682.196 138.493 681.832 138.465 681.454 138.465C681.356 138.465 681.237 138.472 681.097 138.486C680.957 138.5 680.817 138.514 680.677 138.528C680.537 138.542 680.404 138.563 680.278 138.591C680.166 138.605 680.082 138.619 680.026 138.633V143.022C680.18 143.064 680.383 143.099 680.635 143.127C680.901 143.141 681.174 143.148 681.454 143.148ZM689.105 145.5V130.8H691.982V142.938H695.447V130.8H698.324V142.938H701.789V130.8H704.666V145.5H689.105ZM707.193 130.8H715.908V133.362H710.07V136.785H715.383V139.347H710.07V142.938H716.013V145.5H707.193V130.8ZM726.711 133.362H721.041V145.5H718.164V130.8H726.711V133.362ZM726.869 138.15C726.869 135.7 727.408 133.817 728.486 132.501C729.564 131.171 731.104 130.506 733.106 130.506C734.156 130.506 735.073 130.688 735.857 131.052C736.641 131.416 737.292 131.934 737.81 132.606C738.328 133.278 738.713 134.083 738.965 135.021C739.217 135.959 739.343 137.002 739.343 138.15C739.343 140.6 738.797 142.49 737.705 143.82C736.627 145.136 735.094 145.794 733.106 145.794C732.042 145.794 731.118 145.612 730.334 145.248C729.55 144.884 728.899 144.366 728.381 143.694C727.877 143.022 727.499 142.217 727.247 141.279C726.995 140.341 726.869 139.298 726.869 138.15ZM729.893 138.15C729.893 138.892 729.956 139.578 730.082 140.208C730.208 140.824 730.397 141.356 730.649 141.804C730.915 142.252 731.251 142.602 731.657 142.854C732.063 143.106 732.546 143.232 733.106 143.232C734.128 143.232 734.919 142.833 735.479 142.035C736.039 141.237 736.319 139.942 736.319 138.15C736.319 137.436 736.256 136.771 736.13 136.155C736.018 135.539 735.836 135 735.584 134.538C735.332 134.076 735.003 133.719 734.597 133.467C734.191 133.201 733.694 133.068 733.106 133.068C732.084 133.068 731.293 133.481 730.733 134.307C730.173 135.119 729.893 136.4 729.893 138.15ZM742.24 130.8H745.054V137.709L744.508 141.132H742.786L742.24 137.709V130.8ZM741.946 144.114C741.946 143.624 742.1 143.239 742.408 142.959C742.716 142.665 743.122 142.518 743.626 142.518C744.158 142.518 744.578 142.665 744.886 142.959C745.194 143.239 745.348 143.624 745.348 144.114C745.348 144.604 745.194 144.996 744.886 145.29C744.578 145.584 744.158 145.731 743.626 145.731C743.122 145.731 742.716 145.584 742.408 145.29C742.1 144.996 741.946 144.604 741.946 144.114Z" fill="black"/>
<path d="M357.094 202.298C357.449 202.214 357.832 202.158 358.242 202.13C358.653 202.102 359.059 202.088 359.46 202.088C359.89 202.088 360.324 202.13 360.762 202.214C361.21 202.298 361.616 202.452 361.98 202.676C362.344 202.9 362.638 203.208 362.862 203.6C363.096 203.992 363.212 204.491 363.212 205.098C363.212 205.695 363.105 206.199 362.89 206.61C362.676 207.021 362.391 207.357 362.036 207.618C361.682 207.87 361.276 208.052 360.818 208.164C360.361 208.276 359.89 208.332 359.404 208.332C359.358 208.332 359.278 208.332 359.166 208.332C359.064 208.332 358.952 208.332 358.83 208.332C358.718 208.323 358.606 208.313 358.494 208.304C358.382 208.295 358.303 208.285 358.256 208.276V212H357.094V202.298ZM359.488 203.096C359.246 203.096 359.012 203.101 358.788 203.11C358.564 203.119 358.387 203.143 358.256 203.18V207.24C358.303 207.259 358.378 207.273 358.48 207.282C358.583 207.282 358.69 207.287 358.802 207.296C358.914 207.296 359.022 207.296 359.124 207.296C359.227 207.296 359.302 207.296 359.348 207.296C359.666 207.296 359.978 207.268 360.286 207.212C360.604 207.147 360.888 207.035 361.14 206.876C361.392 206.717 361.593 206.493 361.742 206.204C361.901 205.915 361.98 205.546 361.98 205.098C361.98 204.715 361.906 204.398 361.756 204.146C361.616 203.885 361.425 203.679 361.182 203.53C360.949 203.371 360.683 203.259 360.384 203.194C360.086 203.129 359.787 203.096 359.488 203.096ZM368.688 209.284H365.076L364.096 212H362.948L366.658 202.046H367.19L370.914 212H369.696L368.688 209.284ZM365.454 208.276H368.338L367.246 205.294L366.896 203.81H366.882L366.532 205.322L365.454 208.276ZM378.132 211.594C377.852 211.809 377.497 211.958 377.068 212.042C376.639 212.126 376.181 212.168 375.696 212.168C375.108 212.168 374.557 212.07 374.044 211.874C373.531 211.669 373.083 211.361 372.7 210.95C372.317 210.539 372.014 210.017 371.79 209.382C371.566 208.738 371.454 207.977 371.454 207.1C371.454 206.185 371.575 205.411 371.818 204.776C372.07 204.132 372.397 203.609 372.798 203.208C373.209 202.797 373.666 202.499 374.17 202.312C374.674 202.125 375.187 202.032 375.71 202.032C376.27 202.032 376.727 202.065 377.082 202.13C377.437 202.186 377.74 202.265 377.992 202.368L377.712 203.39C377.264 203.175 376.625 203.068 375.794 203.068C375.411 203.068 375.033 203.138 374.66 203.278C374.287 203.418 373.951 203.647 373.652 203.964C373.363 204.281 373.129 204.697 372.952 205.21C372.775 205.723 372.686 206.353 372.686 207.1C372.686 207.772 372.77 208.36 372.938 208.864C373.106 209.368 373.335 209.788 373.624 210.124C373.923 210.46 374.268 210.712 374.66 210.88C375.061 211.048 375.495 211.132 375.962 211.132C376.382 211.132 376.746 211.09 377.054 211.006C377.371 210.922 377.637 210.815 377.852 210.684L378.132 211.594ZM385.761 211.594C385.481 211.809 385.126 211.958 384.697 212.042C384.267 212.126 383.81 212.168 383.325 212.168C382.737 212.168 382.186 212.07 381.673 211.874C381.159 211.669 380.711 211.361 380.329 210.95C379.946 210.539 379.643 210.017 379.419 209.382C379.195 208.738 379.083 207.977 379.083 207.1C379.083 206.185 379.204 205.411 379.447 204.776C379.699 204.132 380.025 203.609 380.427 203.208C380.837 202.797 381.295 202.499 381.799 202.312C382.303 202.125 382.816 202.032 383.339 202.032C383.899 202.032 384.356 202.065 384.711 202.13C385.065 202.186 385.369 202.265 385.621 202.368L385.341 203.39C384.893 203.175 384.253 203.068 383.423 203.068C383.04 203.068 382.662 203.138 382.289 203.278C381.915 203.418 381.579 203.647 381.281 203.964C380.991 204.281 380.758 204.697 380.581 205.21C380.403 205.723 380.315 206.353 380.315 207.1C380.315 207.772 380.399 208.36 380.567 208.864C380.735 209.368 380.963 209.788 381.253 210.124C381.551 210.46 381.897 210.712 382.289 210.88C382.69 211.048 383.124 211.132 383.591 211.132C384.011 211.132 384.375 211.09 384.683 211.006C385 210.922 385.266 210.815 385.481 210.684L385.761 211.594ZM395.019 205.42L395.159 203.95H395.089L394.557 205.294L392.009 209.718H391.659L388.957 205.28L388.453 203.95H388.383L388.579 205.406V212H387.487V202.2H388.355L391.421 207.212L391.883 208.304H391.911L392.345 207.184L395.271 202.2H396.181V212H395.019V205.42ZM398.155 207.1C398.155 205.467 398.5 204.216 399.191 203.348C399.882 202.471 400.866 202.032 402.145 202.032C402.836 202.032 403.433 202.153 403.937 202.396C404.441 202.639 404.856 202.984 405.183 203.432C405.519 203.871 405.766 204.403 405.925 205.028C406.084 205.644 406.163 206.335 406.163 207.1C406.163 208.733 405.813 209.989 405.113 210.866C404.422 211.734 403.433 212.168 402.145 212.168C401.464 212.168 400.871 212.047 400.367 211.804C399.872 211.561 399.457 211.221 399.121 210.782C398.794 210.334 398.552 209.802 398.393 209.186C398.234 208.561 398.155 207.865 398.155 207.1ZM399.387 207.1C399.387 207.641 399.438 208.155 399.541 208.64C399.653 209.125 399.821 209.555 400.045 209.928C400.269 210.292 400.554 210.586 400.899 210.81C401.254 211.025 401.669 211.132 402.145 211.132C403.013 211.132 403.694 210.805 404.189 210.152C404.684 209.489 404.931 208.472 404.931 207.1C404.931 206.568 404.875 206.059 404.763 205.574C404.66 205.079 404.492 204.65 404.259 204.286C404.035 203.913 403.746 203.619 403.391 203.404C403.046 203.18 402.63 203.068 402.145 203.068C401.286 203.068 400.61 203.399 400.115 204.062C399.63 204.715 399.387 205.728 399.387 207.1ZM413.789 203.236H410.737V212H409.575V203.236H406.523V202.2H413.789V203.236ZM415.227 202.298C415.582 202.214 415.964 202.158 416.375 202.13C416.786 202.102 417.192 202.088 417.593 202.088C418.022 202.088 418.456 202.13 418.895 202.214C419.343 202.298 419.749 202.452 420.113 202.676C420.477 202.9 420.771 203.208 420.995 203.6C421.228 203.992 421.345 204.491 421.345 205.098C421.345 205.695 421.238 206.199 421.023 206.61C420.808 207.021 420.524 207.357 420.169 207.618C419.814 207.87 419.408 208.052 418.951 208.164C418.494 208.276 418.022 208.332 417.537 208.332C417.49 208.332 417.411 208.332 417.299 208.332C417.196 208.332 417.084 208.332 416.963 208.332C416.851 208.323 416.739 208.313 416.627 208.304C416.515 208.295 416.436 208.285 416.389 208.276V212H415.227V202.298ZM417.621 203.096C417.378 203.096 417.145 203.101 416.921 203.11C416.697 203.119 416.52 203.143 416.389 203.18V207.24C416.436 207.259 416.51 207.273 416.613 207.282C416.716 207.282 416.823 207.287 416.935 207.296C417.047 207.296 417.154 207.296 417.257 207.296C417.36 207.296 417.434 207.296 417.481 207.296C417.798 207.296 418.111 207.268 418.419 207.212C418.736 207.147 419.021 207.035 419.273 206.876C419.525 206.717 419.726 206.493 419.875 206.204C420.034 205.915 420.113 205.546 420.113 205.098C420.113 204.715 420.038 204.398 419.889 204.146C419.749 203.885 419.558 203.679 419.315 203.53C419.082 203.371 418.816 203.259 418.517 203.194C418.218 203.129 417.92 203.096 417.621 203.096ZM429.039 205.364L429.123 204.244H429.067L428.465 205.392L423.733 212H423.047V202.2H424.209V208.92L424.111 210.026H424.167L424.783 208.878L429.515 202.2H430.201V212H429.039V205.364ZM440.109 205.42L440.249 203.95H440.179L439.647 205.294L437.099 209.718H436.749L434.047 205.28L433.543 203.95H433.473L433.669 205.406V212H432.577V202.2H433.445L436.511 207.212L436.973 208.304H437.001L437.435 207.184L440.361 202.2H441.271V212H440.109V205.42ZM449.175 211.188C449.819 211.188 450.351 211.001 450.771 210.628C451.191 210.255 451.401 209.713 451.401 209.004C451.401 208.323 451.191 207.814 450.771 207.478C450.361 207.142 449.791 206.974 449.063 206.974L447.887 207.044V202.2H452.255V203.236H448.937V206.022L449.539 205.994C450.463 206.003 451.191 206.26 451.723 206.764C452.255 207.268 452.521 207.991 452.521 208.934C452.521 209.457 452.433 209.923 452.255 210.334C452.078 210.735 451.835 211.071 451.527 211.342C451.229 211.613 450.874 211.818 450.463 211.958C450.053 212.098 449.614 212.168 449.147 212.168C448.727 212.168 448.373 212.145 448.083 212.098C447.794 212.051 447.523 211.981 447.271 211.888L447.565 210.936C447.78 211.02 448.009 211.085 448.251 211.132C448.503 211.169 448.811 211.188 449.175 211.188ZM464.429 203.236H459.907V212H458.745V202.2H465.591V212H464.429V203.236ZM467.973 202.298C468.328 202.214 468.711 202.158 469.121 202.13C469.532 202.102 469.938 202.088 470.339 202.088C470.769 202.088 471.203 202.13 471.641 202.214C472.089 202.298 472.495 202.452 472.859 202.676C473.223 202.9 473.517 203.208 473.741 203.6C473.975 203.992 474.091 204.491 474.091 205.098C474.091 205.695 473.984 206.199 473.769 206.61C473.555 207.021 473.27 207.357 472.915 207.618C472.561 207.87 472.155 208.052 471.697 208.164C471.24 208.276 470.769 208.332 470.283 208.332C470.237 208.332 470.157 208.332 470.045 208.332C469.943 208.332 469.831 208.332 469.709 208.332C469.597 208.323 469.485 208.313 469.373 208.304C469.261 208.295 469.182 208.285 469.135 208.276V212H467.973V202.298ZM470.367 203.096C470.125 203.096 469.891 203.101 469.667 203.11C469.443 203.119 469.266 203.143 469.135 203.18V207.24C469.182 207.259 469.257 207.273 469.359 207.282C469.462 207.282 469.569 207.287 469.681 207.296C469.793 207.296 469.901 207.296 470.003 207.296C470.106 207.296 470.181 207.296 470.227 207.296C470.545 207.296 470.857 207.268 471.165 207.212C471.483 207.147 471.767 207.035 472.019 206.876C472.271 206.717 472.472 206.493 472.621 206.204C472.78 205.915 472.859 205.546 472.859 205.098C472.859 204.715 472.785 204.398 472.635 204.146C472.495 203.885 472.304 203.679 472.061 203.53C471.828 203.371 471.562 203.259 471.263 203.194C470.965 203.129 470.666 203.096 470.367 203.096ZM481.786 205.364L481.87 204.244H481.814L481.212 205.392L476.48 212H475.794V202.2H476.956V208.92L476.858 210.026H476.914L477.53 208.878L482.262 202.2H482.948V212H481.786V205.364ZM486.345 202.2V205.448C486.345 206.727 486.923 207.366 488.081 207.366C488.519 207.366 488.93 207.31 489.313 207.198C489.695 207.077 490.008 206.918 490.251 206.722V202.2H491.413V212H490.251V207.772C489.999 207.912 489.667 208.052 489.257 208.192C488.846 208.332 488.375 208.402 487.843 208.402C487.451 208.402 487.091 208.36 486.765 208.276C486.438 208.183 486.158 208.033 485.925 207.828C485.691 207.613 485.509 207.329 485.379 206.974C485.248 206.619 485.183 206.181 485.183 205.658V202.2H486.345ZM499.791 205.364L499.875 204.244H499.819L499.217 205.392L494.485 212H493.799V202.2H494.961V208.92L494.863 210.026H494.919L495.535 208.878L500.267 202.2H500.953V212H499.791V205.364ZM509.195 207.506H504.491V212H503.329V202.2H504.491V206.47H509.195V202.2H510.357V212H509.195V207.506ZM512.231 211.398C512.231 211.174 512.306 210.992 512.455 210.852C512.604 210.712 512.796 210.642 513.029 210.642C513.318 210.642 513.552 210.745 513.729 210.95C513.916 211.155 514.009 211.454 514.009 211.846C514.009 212.182 513.962 212.476 513.869 212.728C513.776 212.98 513.654 213.195 513.505 213.372C513.356 213.559 513.192 213.708 513.015 213.82C512.838 213.941 512.66 214.03 512.483 214.086L512.133 213.54C512.469 213.409 512.716 213.204 512.875 212.924C513.043 212.653 513.127 212.378 513.127 212.098C513.043 212.126 512.964 212.14 512.889 212.14C512.702 212.14 512.544 212.079 512.413 211.958C512.292 211.827 512.231 211.641 512.231 211.398ZM524.202 203.236H519.68V212H518.518V202.2H525.364V212H524.202V203.236ZM527.341 207.1C527.341 205.467 527.686 204.216 528.377 203.348C529.067 202.471 530.052 202.032 531.331 202.032C532.021 202.032 532.619 202.153 533.123 202.396C533.627 202.639 534.042 202.984 534.369 203.432C534.705 203.871 534.952 204.403 535.111 205.028C535.269 205.644 535.349 206.335 535.349 207.1C535.349 208.733 534.999 209.989 534.299 210.866C533.608 211.734 532.619 212.168 531.331 212.168C530.649 212.168 530.057 212.047 529.553 211.804C529.058 211.561 528.643 211.221 528.307 210.782C527.98 210.334 527.737 209.802 527.579 209.186C527.42 208.561 527.341 207.865 527.341 207.1ZM528.573 207.1C528.573 207.641 528.624 208.155 528.727 208.64C528.839 209.125 529.007 209.555 529.231 209.928C529.455 210.292 529.739 210.586 530.085 210.81C530.439 211.025 530.855 211.132 531.331 211.132C532.199 211.132 532.88 210.805 533.375 210.152C533.869 209.489 534.117 208.472 534.117 207.1C534.117 206.568 534.061 206.059 533.949 205.574C533.846 205.079 533.678 204.65 533.445 204.286C533.221 203.913 532.931 203.619 532.577 203.404C532.231 203.18 531.816 203.068 531.331 203.068C530.472 203.068 529.795 203.399 529.301 204.062C528.815 204.715 528.573 205.728 528.573 207.1ZM542.869 207.464H542.211V212H541.049V202.2H542.211V206.764L542.841 206.568L546.131 202.2H547.475L544.199 206.414L543.611 206.876L544.325 207.436L547.909 212H546.439L542.869 207.464ZM548.915 207.1C548.915 205.467 549.26 204.216 549.951 203.348C550.642 202.471 551.626 202.032 552.905 202.032C553.596 202.032 554.193 202.153 554.697 202.396C555.201 202.639 555.616 202.984 555.943 203.432C556.279 203.871 556.526 204.403 556.685 205.028C556.844 205.644 556.923 206.335 556.923 207.1C556.923 208.733 556.573 209.989 555.873 210.866C555.182 211.734 554.193 212.168 552.905 212.168C552.224 212.168 551.631 212.047 551.127 211.804C550.632 211.561 550.217 211.221 549.881 210.782C549.554 210.334 549.312 209.802 549.153 209.186C548.994 208.561 548.915 207.865 548.915 207.1ZM550.147 207.1C550.147 207.641 550.198 208.155 550.301 208.64C550.413 209.125 550.581 209.555 550.805 209.928C551.029 210.292 551.314 210.586 551.659 210.81C552.014 211.025 552.429 211.132 552.905 211.132C553.773 211.132 554.454 210.805 554.949 210.152C555.444 209.489 555.691 208.472 555.691 207.1C555.691 206.568 555.635 206.059 555.523 205.574C555.42 205.079 555.252 204.65 555.019 204.286C554.795 203.913 554.506 203.619 554.151 203.404C553.806 203.18 553.39 203.068 552.905 203.068C552.046 203.068 551.37 203.399 550.875 204.062C550.39 204.715 550.147 205.728 550.147 207.1ZM564.549 203.236H561.497V212H560.335V203.236H557.283V202.2H564.549V203.236ZM564.911 207.1C564.911 205.467 565.256 204.216 565.947 203.348C566.638 202.471 567.622 202.032 568.901 202.032C569.592 202.032 570.189 202.153 570.693 202.396C571.197 202.639 571.612 202.984 571.939 203.432C572.275 203.871 572.522 204.403 572.681 205.028C572.84 205.644 572.919 206.335 572.919 207.1C572.919 208.733 572.569 209.989 571.869 210.866C571.178 211.734 570.189 212.168 568.901 212.168C568.22 212.168 567.627 212.047 567.123 211.804C566.628 211.561 566.213 211.221 565.877 210.782C565.55 210.334 565.308 209.802 565.149 209.186C564.99 208.561 564.911 207.865 564.911 207.1ZM566.143 207.1C566.143 207.641 566.194 208.155 566.297 208.64C566.409 209.125 566.577 209.555 566.801 209.928C567.025 210.292 567.31 210.586 567.655 210.81C568.01 211.025 568.425 211.132 568.901 211.132C569.769 211.132 570.45 210.805 570.945 210.152C571.44 209.489 571.687 208.472 571.687 207.1C571.687 206.568 571.631 206.059 571.519 205.574C571.416 205.079 571.248 204.65 571.015 204.286C570.791 203.913 570.502 203.619 570.147 203.404C569.802 203.18 569.386 203.068 568.901 203.068C568.042 203.068 567.366 203.399 566.871 204.062C566.386 204.715 566.143 205.728 566.143 207.1ZM574.887 202.298C575.242 202.214 575.625 202.158 576.035 202.13C576.446 202.102 576.852 202.088 577.253 202.088C577.683 202.088 578.117 202.13 578.555 202.214C579.003 202.298 579.409 202.452 579.773 202.676C580.137 202.9 580.431 203.208 580.655 203.6C580.889 203.992 581.005 204.491 581.005 205.098C581.005 205.695 580.898 206.199 580.683 206.61C580.469 207.021 580.184 207.357 579.829 207.618C579.475 207.87 579.069 208.052 578.611 208.164C578.154 208.276 577.683 208.332 577.197 208.332C577.151 208.332 577.071 208.332 576.959 208.332C576.857 208.332 576.745 208.332 576.623 208.332C576.511 208.323 576.399 208.313 576.287 208.304C576.175 208.295 576.096 208.285 576.049 208.276V212H574.887V202.298ZM577.281 203.096C577.039 203.096 576.805 203.101 576.581 203.11C576.357 203.119 576.18 203.143 576.049 203.18V207.24C576.096 207.259 576.171 207.273 576.273 207.282C576.376 207.282 576.483 207.287 576.595 207.296C576.707 207.296 576.815 207.296 576.917 207.296C577.02 207.296 577.095 207.296 577.141 207.296C577.459 207.296 577.771 207.268 578.079 207.212C578.397 207.147 578.681 207.035 578.933 206.876C579.185 206.717 579.386 206.493 579.535 206.204C579.694 205.915 579.773 205.546 579.773 205.098C579.773 204.715 579.699 204.398 579.549 204.146C579.409 203.885 579.218 203.679 578.975 203.53C578.742 203.371 578.476 203.259 578.177 203.194C577.879 203.129 577.58 203.096 577.281 203.096ZM589.932 202.2H591.094V212H589.932V202.2ZM582.708 202.2H583.87V206.008C583.916 205.999 583.986 205.989 584.08 205.98C584.173 205.961 584.276 205.947 584.388 205.938C584.5 205.929 584.612 205.919 584.724 205.91C584.845 205.901 584.962 205.896 585.074 205.896C585.512 205.896 585.937 205.943 586.348 206.036C586.768 206.12 587.136 206.274 587.454 206.498C587.771 206.722 588.023 207.025 588.21 207.408C588.406 207.781 588.504 208.257 588.504 208.836C588.504 209.396 588.415 209.886 588.238 210.306C588.06 210.717 587.808 211.057 587.482 211.328C587.164 211.589 586.782 211.785 586.334 211.916C585.886 212.047 585.391 212.112 584.85 212.112C584.719 212.112 584.565 212.107 584.388 212.098C584.22 212.098 584.038 212.089 583.842 212.07C583.655 212.061 583.464 212.042 583.268 212.014C583.072 211.986 582.885 211.949 582.708 211.902V202.2ZM584.948 211.104C585.62 211.104 586.175 210.922 586.614 210.558C587.052 210.194 587.272 209.648 587.272 208.92C587.272 208.528 587.206 208.201 587.076 207.94C586.945 207.679 586.768 207.473 586.544 207.324C586.329 207.165 586.077 207.058 585.788 207.002C585.508 206.937 585.209 206.904 584.892 206.904C584.724 206.904 584.537 206.918 584.332 206.946C584.126 206.974 583.972 207.002 583.87 207.03V211.02C584.122 211.076 584.481 211.104 584.948 211.104ZM600.999 205.42L601.139 203.95H601.069L600.537 205.294L597.989 209.718H597.639L594.937 205.28L594.433 203.95H594.363L594.559 205.406V212H593.467V202.2H594.335L597.401 207.212L597.863 208.304H597.891L598.325 207.184L601.251 202.2H602.161V212H600.999V205.42ZM614.546 211.594C614.266 211.809 613.911 211.958 613.482 212.042C613.053 212.126 612.595 212.168 612.11 212.168C611.522 212.168 610.971 212.07 610.458 211.874C609.945 211.669 609.497 211.361 609.114 210.95C608.731 210.539 608.428 210.017 608.204 209.382C607.98 208.738 607.868 207.977 607.868 207.1C607.868 206.185 607.989 205.411 608.232 204.776C608.484 204.132 608.811 203.609 609.212 203.208C609.623 202.797 610.08 202.499 610.584 202.312C611.088 202.125 611.601 202.032 612.124 202.032C612.684 202.032 613.141 202.065 613.496 202.13C613.851 202.186 614.154 202.265 614.406 202.368L614.126 203.39C613.678 203.175 613.039 203.068 612.208 203.068C611.825 203.068 611.447 203.138 611.074 203.278C610.701 203.418 610.365 203.647 610.066 203.964C609.777 204.281 609.543 204.697 609.366 205.21C609.189 205.723 609.1 206.353 609.1 207.1C609.1 207.772 609.184 208.36 609.352 208.864C609.52 209.368 609.749 209.788 610.038 210.124C610.337 210.46 610.682 210.712 611.074 210.88C611.475 211.048 611.909 211.132 612.376 211.132C612.796 211.132 613.16 211.09 613.468 211.006C613.785 210.922 614.051 210.815 614.266 210.684L614.546 211.594ZM616.272 202.2H621.606V203.236H617.434V206.442H621.256V207.478H617.434V210.964H621.676V212H616.272V202.2ZM631.562 213.806H630.764L630.554 212H623.68L623.47 213.806H622.658V210.964H623.652C623.727 210.861 623.839 210.623 623.988 210.25C624.147 209.867 624.301 209.326 624.45 208.626C624.609 207.917 624.749 207.035 624.87 205.98C624.991 204.916 625.052 203.656 625.052 202.2H630.288V210.964H631.562V213.806ZM629.126 210.964V203.236H626.144C626.116 204.263 626.06 205.187 625.976 206.008C625.901 206.829 625.808 207.557 625.696 208.192C625.584 208.817 625.458 209.359 625.318 209.816C625.178 210.273 625.033 210.656 624.884 210.964H629.126ZM632.409 207.1C632.409 205.467 632.754 204.216 633.445 203.348C634.136 202.471 635.12 202.032 636.399 202.032C637.09 202.032 637.687 202.153 638.191 202.396C638.695 202.639 639.11 202.984 639.437 203.432C639.773 203.871 640.02 204.403 640.179 205.028C640.338 205.644 640.417 206.335 640.417 207.1C640.417 208.733 640.067 209.989 639.367 210.866C638.676 211.734 637.687 212.168 636.399 212.168C635.718 212.168 635.125 212.047 634.621 211.804C634.126 211.561 633.711 211.221 633.375 210.782C633.048 210.334 632.806 209.802 632.647 209.186C632.488 208.561 632.409 207.865 632.409 207.1ZM633.641 207.1C633.641 207.641 633.692 208.155 633.795 208.64C633.907 209.125 634.075 209.555 634.299 209.928C634.523 210.292 634.808 210.586 635.153 210.81C635.508 211.025 635.923 211.132 636.399 211.132C637.267 211.132 637.948 210.805 638.443 210.152C638.938 209.489 639.185 208.472 639.185 207.1C639.185 206.568 639.129 206.059 639.017 205.574C638.914 205.079 638.746 204.65 638.513 204.286C638.289 203.913 638 203.619 637.645 203.404C637.3 203.18 636.884 203.068 636.399 203.068C635.54 203.068 634.864 203.399 634.369 204.062C633.884 204.715 633.641 205.728 633.641 207.1ZM648.251 207.506H643.547V212H642.385V202.2H643.547V206.47H648.251V202.2H649.413V212H648.251V207.506ZM656.454 209.284H652.842L651.862 212H650.714L654.424 202.046H654.956L658.68 212H657.462L656.454 209.284ZM653.22 208.276H656.104L655.012 205.294L654.662 203.81H654.648L654.298 205.322L653.22 208.276ZM664.959 207.464H664.301V212H663.139V202.2H664.301V206.764L664.931 206.568L668.221 202.2H669.565L666.289 206.414L665.701 206.876L666.415 207.436L669.999 212H668.529L664.959 207.464ZM671.684 202.298C672.039 202.214 672.421 202.158 672.832 202.13C673.243 202.102 673.649 202.088 674.05 202.088C674.479 202.088 674.913 202.13 675.352 202.214C675.8 202.298 676.206 202.452 676.57 202.676C676.934 202.9 677.228 203.208 677.452 203.6C677.685 203.992 677.802 204.491 677.802 205.098C677.802 205.695 677.695 206.199 677.48 206.61C677.265 207.021 676.981 207.357 676.626 207.618C676.271 207.87 675.865 208.052 675.408 208.164C674.951 208.276 674.479 208.332 673.994 208.332C673.947 208.332 673.868 208.332 673.756 208.332C673.653 208.332 673.541 208.332 673.42 208.332C673.308 208.323 673.196 208.313 673.084 208.304C672.972 208.295 672.893 208.285 672.846 208.276V212H671.684V202.298ZM674.078 203.096C673.835 203.096 673.602 203.101 673.378 203.11C673.154 203.119 672.977 203.143 672.846 203.18V207.24C672.893 207.259 672.967 207.273 673.07 207.282C673.173 207.282 673.28 207.287 673.392 207.296C673.504 207.296 673.611 207.296 673.714 207.296C673.817 207.296 673.891 207.296 673.938 207.296C674.255 207.296 674.568 207.268 674.876 207.212C675.193 207.147 675.478 207.035 675.73 206.876C675.982 206.717 676.183 206.493 676.332 206.204C676.491 205.915 676.57 205.546 676.57 205.098C676.57 204.715 676.495 204.398 676.346 204.146C676.206 203.885 676.015 203.679 675.772 203.53C675.539 203.371 675.273 203.259 674.974 203.194C674.675 203.129 674.377 203.096 674.078 203.096ZM682.003 207.366L682.367 208.612H682.437L682.717 207.324L684.593 202.2H685.783L683.305 208.57C683.053 209.233 682.829 209.788 682.633 210.236C682.446 210.675 682.255 211.034 682.059 211.314C681.863 211.585 681.653 211.781 681.429 211.902C681.205 212.014 680.929 212.07 680.603 212.07C680.295 212.07 680.047 212.047 679.861 212C679.683 211.944 679.515 211.865 679.357 211.762L679.707 210.796C679.893 210.899 680.066 210.964 680.225 210.992C680.383 211.02 680.528 211.034 680.659 211.034C680.92 211.034 681.139 210.903 681.317 210.642C681.494 210.371 681.648 209.975 681.779 209.452L678.153 202.2H679.497L682.003 207.366ZM688.005 202.2V205.448C688.005 206.727 688.584 207.366 689.741 207.366C690.18 207.366 690.59 207.31 690.973 207.198C691.356 207.077 691.668 206.918 691.911 206.722V202.2H693.073V212H691.911V207.772C691.659 207.912 691.328 208.052 690.917 208.192C690.506 208.332 690.035 208.402 689.503 208.402C689.111 208.402 688.752 208.36 688.425 208.276C688.098 208.183 687.818 208.033 687.585 207.828C687.352 207.613 687.17 207.329 687.039 206.974C686.908 206.619 686.843 206.181 686.843 205.658V202.2H688.005ZM695.46 202.2H700.794V203.236H696.622V206.442H700.444V207.478H696.622V210.964H700.864V212H695.46V202.2ZM702.461 211.398C702.461 211.174 702.536 210.992 702.685 210.852C702.835 210.712 703.026 210.642 703.259 210.642C703.549 210.642 703.782 210.745 703.959 210.95C704.146 211.155 704.239 211.454 704.239 211.846C704.239 212.182 704.193 212.476 704.099 212.728C704.006 212.98 703.885 213.195 703.735 213.372C703.586 213.559 703.423 213.708 703.245 213.82C703.068 213.941 702.891 214.03 702.713 214.086L702.363 213.54C702.699 213.409 702.947 213.204 703.105 212.924C703.273 212.653 703.357 212.378 703.357 212.098C703.273 212.126 703.194 212.14 703.119 212.14C702.933 212.14 702.774 212.079 702.643 211.958C702.522 211.827 702.461 211.641 702.461 211.398ZM709.771 202.2V205.448C709.771 206.727 710.349 207.366 711.507 207.366C711.945 207.366 712.356 207.31 712.739 207.198C713.121 207.077 713.434 206.918 713.677 206.722V202.2H714.839V212H713.677V207.772C713.425 207.912 713.093 208.052 712.683 208.192C712.272 208.332 711.801 208.402 711.269 208.402C710.877 208.402 710.517 208.36 710.191 208.276C709.864 208.183 709.584 208.033 709.351 207.828C709.117 207.613 708.935 207.329 708.805 206.974C708.674 206.619 708.609 206.181 708.609 205.658V202.2H709.771ZM717.225 202.2H722.559V203.236H718.387V206.442H722.209V207.478H718.387V210.964H722.629V212H717.225V202.2ZM732.263 205.42L732.403 203.95H732.333L731.801 205.294L729.253 209.718H728.903L726.201 205.28L725.697 203.95H725.627L725.823 205.406V212H724.731V202.2H725.599L728.665 207.212L729.127 208.304H729.155L729.589 207.184L732.515 202.2H733.425V212H732.263V205.42ZM744.788 203.236H740.7V212H739.538V202.2H744.788V203.236ZM745.731 202.298C746.086 202.214 746.468 202.158 746.879 202.13C747.29 202.102 747.696 202.088 748.097 202.088C748.526 202.088 748.96 202.13 749.399 202.214C749.847 202.298 750.253 202.452 750.617 202.676C750.981 202.9 751.275 203.208 751.499 203.6C751.732 203.992 751.849 204.491 751.849 205.098C751.849 205.695 751.742 206.199 751.527 206.61C751.312 207.021 751.028 207.357 750.673 207.618C750.318 207.87 749.912 208.052 749.455 208.164C748.998 208.276 748.526 208.332 748.041 208.332C747.994 208.332 747.915 208.332 747.803 208.332C747.7 208.332 747.588 208.332 747.467 208.332C747.355 208.323 747.243 208.313 747.131 208.304C747.019 208.295 746.94 208.285 746.893 208.276V212H745.731V202.298ZM748.125 203.096C747.882 203.096 747.649 203.101 747.425 203.11C747.201 203.119 747.024 203.143 746.893 203.18V207.24C746.94 207.259 747.014 207.273 747.117 207.282C747.22 207.282 747.327 207.287 747.439 207.296C747.551 207.296 747.658 207.296 747.761 207.296C747.864 207.296 747.938 207.296 747.985 207.296C748.302 207.296 748.615 207.268 748.923 207.212C749.24 207.147 749.525 207.035 749.777 206.876C750.029 206.717 750.23 206.493 750.379 206.204C750.538 205.915 750.617 205.546 750.617 205.098C750.617 204.715 750.542 204.398 750.393 204.146C750.253 203.885 750.062 203.679 749.819 203.53C749.586 203.371 749.32 203.259 749.021 203.194C748.722 203.129 748.424 203.096 748.125 203.096ZM757.325 209.284H753.713L752.733 212H751.585L755.295 202.046H755.827L759.551 212H758.333L757.325 209.284ZM754.091 208.276H756.975L755.883 205.294L755.533 203.81H755.519L755.169 205.322L754.091 208.276ZM766.718 207.506H762.014V212H760.852V202.2H762.014V206.47H766.718V202.2H767.88V212H766.718V207.506ZM778.042 213.806H777.244L777.034 212H770.16L769.95 213.806H769.138V210.964H770.132C770.207 210.861 770.319 210.623 770.468 210.25C770.627 209.867 770.781 209.326 770.93 208.626C771.089 207.917 771.229 207.035 771.35 205.98C771.472 204.916 771.532 203.656 771.532 202.2H776.768V210.964H778.042V213.806ZM775.606 210.964V203.236H772.624C772.596 204.263 772.54 205.187 772.456 206.008C772.382 206.829 772.288 207.557 772.176 208.192C772.064 208.817 771.938 209.359 771.798 209.816C771.658 210.273 771.514 210.656 771.364 210.964H775.606ZM785.176 207.464H784.518V212H783.356V202.2H784.518V206.764L785.148 206.568L788.438 202.2H789.782L786.506 206.414L785.918 206.876L786.632 207.436L790.216 212H788.746L785.176 207.464ZM796.563 209.284H792.951L791.971 212H790.823L794.533 202.046H795.065L798.789 212H797.571L796.563 209.284ZM793.329 208.276H796.213L795.121 205.294L794.771 203.81H794.757L794.407 205.322L793.329 208.276ZM805.956 207.506H801.252V212H800.09V202.2H801.252V206.47H805.956V202.2H807.118V212H805.956V207.506ZM809.497 202.2H810.659V206.008C810.705 205.999 810.785 205.989 810.897 205.98C811.009 205.961 811.13 205.947 811.261 205.938C811.391 205.929 811.527 205.919 811.667 205.91C811.807 205.901 811.933 205.896 812.045 205.896C812.493 205.896 812.927 205.943 813.347 206.036C813.776 206.12 814.154 206.274 814.481 206.498C814.817 206.722 815.087 207.025 815.293 207.408C815.498 207.781 815.601 208.257 815.601 208.836C815.601 209.396 815.503 209.881 815.307 210.292C815.111 210.703 814.84 211.043 814.495 211.314C814.149 211.585 813.743 211.785 813.277 211.916C812.819 212.047 812.32 212.112 811.779 212.112C811.648 212.112 811.489 212.107 811.303 212.098C811.116 212.098 810.915 212.089 810.701 212.07C810.495 212.061 810.285 212.042 810.071 212.014C809.865 211.986 809.674 211.949 809.497 211.902V202.2ZM811.933 211.104C812.269 211.104 812.581 211.062 812.871 210.978C813.169 210.885 813.431 210.749 813.655 210.572C813.879 210.385 814.051 210.157 814.173 209.886C814.303 209.606 814.369 209.284 814.369 208.92C814.369 208.528 814.299 208.201 814.159 207.94C814.019 207.679 813.832 207.473 813.599 207.324C813.375 207.165 813.113 207.058 812.815 207.002C812.516 206.937 812.208 206.904 811.891 206.904C811.807 206.904 811.704 206.909 811.583 206.918C811.461 206.927 811.34 206.937 811.219 206.946C811.097 206.955 810.985 206.969 810.883 206.988C810.78 207.007 810.705 207.021 810.659 207.03V211.02C810.789 211.048 810.976 211.071 811.219 211.09C811.461 211.099 811.699 211.104 811.933 211.104ZM816.638 207.1C816.638 205.467 816.983 204.216 817.674 203.348C818.364 202.471 819.349 202.032 820.628 202.032C821.318 202.032 821.916 202.153 822.42 202.396C822.924 202.639 823.339 202.984 823.666 203.432C824.002 203.871 824.249 204.403 824.408 205.028C824.566 205.644 824.646 206.335 824.646 207.1C824.646 208.733 824.296 209.989 823.596 210.866C822.905 211.734 821.916 212.168 820.628 212.168C819.946 212.168 819.354 212.047 818.85 211.804C818.355 211.561 817.94 211.221 817.604 210.782C817.277 210.334 817.034 209.802 816.876 209.186C816.717 208.561 816.638 207.865 816.638 207.1ZM817.87 207.1C817.87 207.641 817.921 208.155 818.024 208.64C818.136 209.125 818.304 209.555 818.528 209.928C818.752 210.292 819.036 210.586 819.382 210.81C819.736 211.025 820.152 211.132 820.628 211.132C821.496 211.132 822.177 210.805 822.672 210.152C823.166 209.489 823.414 208.472 823.414 207.1C823.414 206.568 823.358 206.059 823.246 205.574C823.143 205.079 822.975 204.65 822.742 204.286C822.518 203.913 822.228 203.619 821.874 203.404C821.528 203.18 821.113 203.068 820.628 203.068C819.769 203.068 819.092 203.399 818.598 204.062C818.112 204.715 817.87 205.728 817.87 207.1ZM832.48 207.506H827.776V212H826.614V202.2H827.776V206.47H832.48V202.2H833.642V212H832.48V207.506ZM836.608 202.2H837.77V207.058L837.532 209.522H836.846L836.608 207.058V202.2ZM836.37 211.356C836.37 211.104 836.44 210.908 836.58 210.768C836.729 210.619 836.925 210.544 837.168 210.544C837.42 210.544 837.621 210.619 837.77 210.768C837.919 210.908 837.994 211.104 837.994 211.356C837.994 211.599 837.919 211.795 837.77 211.944C837.621 212.093 837.42 212.168 837.168 212.168C836.925 212.168 836.729 212.093 836.58 211.944C836.44 211.795 836.37 211.599 836.37 211.356Z" fill="#333333"/>
</svg>
