<svg width="568" height="86" viewBox="0 0 568 86" fill="none" xmlns="http://www.w3.org/2000/svg">
<rect width="568" height="86" fill="#766357"/>
<path d="M149.715 37.862H144.57V50H141.693V35.3H152.592V50H149.715V37.862ZM154.643 42.65C154.643 40.2 155.182 38.317 156.26 37.001C157.338 35.671 158.878 35.006 160.88 35.006C161.93 35.006 162.847 35.188 163.631 35.552C164.415 35.916 165.066 36.434 165.584 37.106C166.102 37.778 166.487 38.583 166.739 39.521C166.991 40.459 167.117 41.502 167.117 42.65C167.117 45.1 166.571 46.99 165.479 48.32C164.401 49.636 162.868 50.294 160.88 50.294C159.816 50.294 158.892 50.112 158.108 49.748C157.324 49.384 156.673 48.866 156.155 48.194C155.651 47.522 155.273 46.717 155.021 45.779C154.769 44.841 154.643 43.798 154.643 42.65ZM157.667 42.65C157.667 43.392 157.73 44.078 157.856 44.708C157.982 45.324 158.171 45.856 158.423 46.304C158.689 46.752 159.025 47.102 159.431 47.354C159.837 47.606 160.32 47.732 160.88 47.732C161.902 47.732 162.693 47.333 163.253 46.535C163.813 45.737 164.093 44.442 164.093 42.65C164.093 41.936 164.03 41.271 163.904 40.655C163.792 40.039 163.61 39.5 163.358 39.038C163.106 38.576 162.777 38.219 162.371 37.967C161.965 37.701 161.468 37.568 160.88 37.568C159.858 37.568 159.067 37.981 158.507 38.807C157.947 39.619 157.667 40.9 157.667 42.65ZM177.741 41.852L177.909 39.941H177.804L176.817 41.915L171.336 50H169.173V35.3H172.05V43.301L171.84 45.275H171.966L172.995 43.238L178.476 35.3H180.618V50H177.741V41.852ZM193.113 49.391C192.665 49.713 192.091 49.944 191.391 50.084C190.705 50.224 189.998 50.294 189.27 50.294C188.388 50.294 187.548 50.161 186.75 49.895C185.966 49.615 185.273 49.174 184.671 48.572C184.069 47.956 183.586 47.165 183.222 46.199C182.872 45.219 182.697 44.036 182.697 42.65C182.697 41.208 182.893 40.004 183.285 39.038C183.691 38.058 184.209 37.274 184.839 36.686C185.483 36.084 186.197 35.657 186.981 35.405C187.765 35.139 188.549 35.006 189.333 35.006C190.173 35.006 190.88 35.062 191.454 35.174C192.042 35.286 192.525 35.419 192.903 35.573L192.336 38.009C192.014 37.855 191.629 37.743 191.181 37.673C190.747 37.603 190.215 37.568 189.585 37.568C188.423 37.568 187.485 37.981 186.771 38.807C186.071 39.633 185.721 40.914 185.721 42.65C185.721 43.406 185.805 44.099 185.973 44.729C186.141 45.345 186.393 45.877 186.729 46.325C187.079 46.759 187.506 47.102 188.01 47.354C188.528 47.592 189.123 47.711 189.795 47.711C190.425 47.711 190.957 47.648 191.391 47.522C191.825 47.396 192.203 47.235 192.525 47.039L193.113 49.391ZM198.523 43.721H197.767V50H194.89V35.3H197.767V41.81L198.439 41.516L202.492 35.3H205.768L201.484 41.474L200.35 42.272L201.526 43.091L206.419 50H202.87L198.523 43.721ZM221.422 37.862H215.752V50H212.875V35.3H221.422V37.862ZM221.58 42.65C221.58 40.2 222.119 38.317 223.197 37.001C224.275 35.671 225.815 35.006 227.817 35.006C228.867 35.006 229.784 35.188 230.568 35.552C231.352 35.916 232.003 36.434 232.521 37.106C233.039 37.778 233.424 38.583 233.676 39.521C233.928 40.459 234.054 41.502 234.054 42.65C234.054 45.1 233.508 46.99 232.416 48.32C231.338 49.636 229.805 50.294 227.817 50.294C226.753 50.294 225.829 50.112 225.045 49.748C224.261 49.384 223.61 48.866 223.092 48.194C222.588 47.522 222.21 46.717 221.958 45.779C221.706 44.841 221.58 43.798 221.58 42.65ZM224.604 42.65C224.604 43.392 224.667 44.078 224.793 44.708C224.919 45.324 225.108 45.856 225.36 46.304C225.626 46.752 225.962 47.102 226.368 47.354C226.774 47.606 227.257 47.732 227.817 47.732C228.839 47.732 229.63 47.333 230.19 46.535C230.75 45.737 231.03 44.442 231.03 42.65C231.03 41.936 230.967 41.271 230.841 40.655C230.729 40.039 230.547 39.5 230.295 39.038C230.043 38.576 229.714 38.219 229.308 37.967C228.902 37.701 228.405 37.568 227.817 37.568C226.795 37.568 226.004 37.981 225.444 38.807C224.884 39.619 224.604 40.9 224.604 42.65ZM246.065 49.391C245.617 49.713 245.043 49.944 244.343 50.084C243.657 50.224 242.95 50.294 242.222 50.294C241.34 50.294 240.5 50.161 239.702 49.895C238.918 49.615 238.225 49.174 237.623 48.572C237.021 47.956 236.538 47.165 236.174 46.199C235.824 45.219 235.649 44.036 235.649 42.65C235.649 41.208 235.845 40.004 236.237 39.038C236.643 38.058 237.161 37.274 237.791 36.686C238.435 36.084 239.149 35.657 239.933 35.405C240.717 35.139 241.501 35.006 242.285 35.006C243.125 35.006 243.832 35.062 244.406 35.174C244.994 35.286 245.477 35.419 245.855 35.573L245.288 38.009C244.966 37.855 244.581 37.743 244.133 37.673C243.699 37.603 243.167 37.568 242.537 37.568C241.375 37.568 240.437 37.981 239.723 38.807C239.023 39.633 238.673 40.914 238.673 42.65C238.673 43.406 238.757 44.099 238.925 44.729C239.093 45.345 239.345 45.877 239.681 46.325C240.031 46.759 240.458 47.102 240.962 47.354C241.48 47.592 242.075 47.711 242.747 47.711C243.377 47.711 243.909 47.648 244.343 47.522C244.777 47.396 245.155 47.235 245.477 47.039L246.065 49.391ZM257.355 37.862H253.071V50H250.194V37.862H245.889V35.3H257.355V37.862ZM267.422 41.852L267.59 39.941H267.485L266.498 41.915L261.017 50H258.854V35.3H261.731V43.301L261.521 45.275H261.647L262.676 43.238L268.157 35.3H270.299V50H267.422V41.852ZM281.093 43.847H275.717V50H272.84V35.3H275.717V41.285H281.093V35.3H283.97V50H281.093V43.847ZM295.087 41.852L295.255 39.941H295.15L294.163 41.915L288.682 50H286.519V35.3H289.396V43.301L289.186 45.275H289.312L290.341 43.238L295.822 35.3H297.964V50H295.087V41.852ZM313.21 52.625H311.173L310.858 50H300.505V35.3H303.382V47.438H308.443V35.3H311.32V47.438H313.21V52.625ZM326.16 35.3H329.037V50H326.16V35.3ZM314.82 35.3H317.697V40.571C317.851 40.543 318.096 40.508 318.432 40.466C318.768 40.424 319.097 40.403 319.419 40.403C320.119 40.403 320.784 40.473 321.414 40.613C322.058 40.753 322.618 41.005 323.094 41.369C323.57 41.719 323.948 42.202 324.228 42.818C324.508 43.42 324.648 44.183 324.648 45.107C324.648 46.815 324.151 48.096 323.157 48.95C322.163 49.79 320.686 50.21 318.726 50.21C318.53 50.21 318.278 50.203 317.97 50.189C317.662 50.189 317.326 50.175 316.962 50.147C316.612 50.119 316.248 50.084 315.87 50.042C315.492 50 315.142 49.937 314.82 49.853V35.3ZM318.936 47.648C319.734 47.648 320.378 47.466 320.868 47.102C321.372 46.724 321.624 46.101 321.624 45.233C321.624 44.771 321.554 44.393 321.414 44.099C321.274 43.805 321.085 43.574 320.847 43.406C320.609 43.238 320.329 43.126 320.007 43.07C319.685 43 319.335 42.965 318.957 42.965C318.761 42.965 318.53 42.986 318.264 43.028C317.998 43.056 317.809 43.091 317.697 43.133V47.522C317.851 47.564 318.033 47.599 318.243 47.627C318.467 47.641 318.698 47.648 318.936 47.648ZM346.777 38.723C346.777 39.087 346.728 39.451 346.63 39.815C346.546 40.179 346.399 40.515 346.189 40.823C345.979 41.117 345.706 41.383 345.37 41.621C345.034 41.845 344.628 42.013 344.152 42.125V42.251C344.572 42.321 344.971 42.44 345.349 42.608C345.727 42.776 346.056 43.007 346.336 43.301C346.616 43.595 346.833 43.952 346.987 44.372C347.155 44.792 347.239 45.289 347.239 45.863C347.239 46.619 347.078 47.277 346.756 47.837C346.434 48.383 346 48.831 345.454 49.181C344.922 49.531 344.313 49.79 343.627 49.958C342.941 50.126 342.234 50.21 341.506 50.21C341.268 50.21 340.96 50.21 340.582 50.21C340.218 50.21 339.819 50.196 339.385 50.168C338.965 50.154 338.531 50.126 338.083 50.084C337.649 50.042 337.25 49.979 336.886 49.895V35.405C337.152 35.363 337.453 35.321 337.789 35.279C338.139 35.237 338.51 35.202 338.902 35.174C339.294 35.146 339.693 35.125 340.099 35.111C340.519 35.097 340.932 35.09 341.338 35.09C342.024 35.09 342.689 35.146 343.333 35.258C343.991 35.356 344.572 35.538 345.076 35.804C345.594 36.07 346.007 36.441 346.315 36.917C346.623 37.393 346.777 37.995 346.777 38.723ZM341.527 47.837C341.877 47.837 342.213 47.795 342.535 47.711C342.871 47.627 343.165 47.501 343.417 47.333C343.669 47.151 343.872 46.927 344.026 46.661C344.18 46.395 344.257 46.08 344.257 45.716C344.257 45.254 344.166 44.89 343.984 44.624C343.802 44.358 343.564 44.155 343.27 44.015C342.976 43.861 342.647 43.763 342.283 43.721C341.919 43.679 341.555 43.658 341.191 43.658H339.658V47.711C339.728 47.739 339.84 47.76 339.994 47.774C340.148 47.788 340.309 47.802 340.477 47.816C340.659 47.816 340.841 47.823 341.023 47.837C341.219 47.837 341.387 47.837 341.527 47.837ZM340.582 41.474C340.778 41.474 341.002 41.467 341.254 41.453C341.52 41.439 341.737 41.418 341.905 41.39C342.437 41.222 342.892 40.97 343.27 40.634C343.662 40.298 343.858 39.857 343.858 39.311C343.858 38.947 343.788 38.646 343.648 38.408C343.508 38.17 343.319 37.981 343.081 37.841C342.857 37.701 342.598 37.603 342.304 37.547C342.01 37.491 341.702 37.463 341.38 37.463C341.016 37.463 340.68 37.47 340.372 37.484C340.064 37.498 339.826 37.519 339.658 37.547V41.474H340.582ZM364.292 49.391C363.844 49.713 363.27 49.944 362.57 50.084C361.884 50.224 361.177 50.294 360.449 50.294C359.567 50.294 358.727 50.161 357.929 49.895C357.145 49.615 356.452 49.174 355.85 48.572C355.248 47.956 354.765 47.165 354.401 46.199C354.051 45.219 353.876 44.036 353.876 42.65C353.876 41.208 354.072 40.004 354.464 39.038C354.87 38.058 355.388 37.274 356.018 36.686C356.662 36.084 357.376 35.657 358.16 35.405C358.944 35.139 359.728 35.006 360.512 35.006C361.352 35.006 362.059 35.062 362.633 35.174C363.221 35.286 363.704 35.419 364.082 35.573L363.515 38.009C363.193 37.855 362.808 37.743 362.36 37.673C361.926 37.603 361.394 37.568 360.764 37.568C359.602 37.568 358.664 37.981 357.95 38.807C357.25 39.633 356.9 40.914 356.9 42.65C356.9 43.406 356.984 44.099 357.152 44.729C357.32 45.345 357.572 45.877 357.908 46.325C358.258 46.759 358.685 47.102 359.189 47.354C359.707 47.592 360.302 47.711 360.974 47.711C361.604 47.711 362.136 47.648 362.57 47.522C363.004 47.396 363.382 47.235 363.704 47.039L364.292 49.391ZM366.069 35.3H374.784V37.862H368.946V41.285H374.259V43.847H368.946V47.438H374.889V50H366.069V35.3ZM389.934 52.625H387.897L387.582 50H378.132L377.817 52.625H375.78V47.438H377.334C377.432 47.284 377.593 46.941 377.817 46.409C378.041 45.877 378.265 45.128 378.489 44.162C378.713 43.182 378.902 41.964 379.056 40.508C379.21 39.038 379.28 37.302 379.266 35.3H388.065V47.438H389.934V52.625ZM385.188 47.438V37.862H381.933C381.849 40.354 381.646 42.398 381.324 43.994C381.016 45.576 380.701 46.724 380.379 47.438H385.188ZM390.647 42.65C390.647 40.2 391.186 38.317 392.264 37.001C393.342 35.671 394.882 35.006 396.884 35.006C397.934 35.006 398.851 35.188 399.635 35.552C400.419 35.916 401.07 36.434 401.588 37.106C402.106 37.778 402.491 38.583 402.743 39.521C402.995 40.459 403.121 41.502 403.121 42.65C403.121 45.1 402.575 46.99 401.483 48.32C400.405 49.636 398.872 50.294 396.884 50.294C395.82 50.294 394.896 50.112 394.112 49.748C393.328 49.384 392.677 48.866 392.159 48.194C391.655 47.522 391.277 46.717 391.025 45.779C390.773 44.841 390.647 43.798 390.647 42.65ZM393.671 42.65C393.671 43.392 393.734 44.078 393.86 44.708C393.986 45.324 394.175 45.856 394.427 46.304C394.693 46.752 395.029 47.102 395.435 47.354C395.841 47.606 396.324 47.732 396.884 47.732C397.906 47.732 398.697 47.333 399.257 46.535C399.817 45.737 400.097 44.442 400.097 42.65C400.097 41.936 400.034 41.271 399.908 40.655C399.796 40.039 399.614 39.5 399.362 39.038C399.11 38.576 398.781 38.219 398.375 37.967C397.969 37.701 397.472 37.568 396.884 37.568C395.862 37.568 395.071 37.981 394.511 38.807C393.951 39.619 393.671 40.9 393.671 42.65ZM413.43 43.847H408.054V50H405.177V35.3H408.054V41.285H413.43V35.3H416.307V50H413.43V43.847ZM418.856 35.3H427.571V37.862H421.733V41.285H427.046V43.847H421.733V47.438H427.676V50H418.856V35.3Z" fill="white"/>
</svg>
