<svg width="433" height="99" viewBox="0 0 433 99" fill="none" xmlns="http://www.w3.org/2000/svg">
<path d="M72.0336 12.7V9.49H72.7536C72.9336 9.49 73.1536 9.49 73.4136 9.49C73.6736 9.49 73.9336 9.49 74.1936 9.49C74.4736 9.47 74.7436 9.45 75.0036 9.43C75.2636 9.39 75.4736 9.35 75.6336 9.31C76.3336 9.15 76.9336 8.87 77.4336 8.47C77.9336 8.05 78.1836 7.49 78.1836 6.79C78.1836 5.83 77.8736 5.18 77.2536 4.84C76.6536 4.48 75.8536 4.3 74.8536 4.3C73.9536 4.3 73.1136 4.42 72.3336 4.66C71.5536 4.9 70.9636 5.13 70.5636 5.35L69.5136 1.87C69.7336 1.75 70.0436 1.62 70.4436 1.48C70.8636 1.34 71.3336 1.21 71.8536 1.09C72.3936 0.949999 72.9736 0.839999 73.5936 0.76C74.2136 0.68 74.8436 0.64 75.4836 0.64C76.3636 0.64 77.2236 0.719999 78.0636 0.879998C78.9036 1.04 79.6536 1.32 80.3136 1.72C80.9736 2.12 81.5036 2.66 81.9036 3.34C82.3036 4 82.5036 4.85 82.5036 5.89C82.5036 6.93 82.2236 7.89 81.6636 8.77C81.1236 9.65 80.2436 10.29 79.0236 10.69V10.84C80.3236 11.1 81.3336 11.66 82.0536 12.52C82.7936 13.38 83.1636 14.53 83.1636 15.97C83.1636 17.11 82.9336 18.09 82.4736 18.91C82.0136 19.71 81.4036 20.37 80.6436 20.89C79.9036 21.41 79.0436 21.79 78.0636 22.03C77.0836 22.29 76.0836 22.42 75.0636 22.42C73.7436 22.42 72.5436 22.31 71.4636 22.09C70.3836 21.87 69.5536 21.61 68.9736 21.31L70.0236 17.74C70.4836 17.96 71.1436 18.19 72.0036 18.43C72.8636 18.65 73.8836 18.76 75.0636 18.76C75.5036 18.76 75.9436 18.71 76.3836 18.61C76.8436 18.49 77.2536 18.31 77.6136 18.07C77.9736 17.81 78.2636 17.48 78.4836 17.08C78.7036 16.68 78.8136 16.2 78.8136 15.64C78.8136 14.7 78.4636 13.99 77.7636 13.51C77.0636 13.03 75.8136 12.77 74.0136 12.73C73.7736 12.71 73.5936 12.7 73.4736 12.7C73.3536 12.7 73.1436 12.7 72.8436 12.7H72.0336ZM96.3746 17.35H89.9246L88.3346 22H84.2246L91.7846 0.849999H94.8146L102.375 22H98.0546L96.3746 17.35ZM90.9746 14.05H95.4746L93.9146 9.37L93.2846 6.07H93.1346L92.5046 9.4L90.9746 14.05ZM116.429 10.36L116.669 7.63H116.519L115.109 10.45L107.279 22H104.189V0.999999H108.299V12.43L107.999 15.25H108.179L109.649 12.34L117.479 0.999999H120.539V22H116.429V10.36ZM135.959 13.21H128.279V22H124.169V0.999999H128.279V9.55H135.959V0.999999H140.069V22H135.959V13.21ZM158.62 4.66H152.5V22H148.39V4.66H142.24V0.999999H158.62V4.66ZM160.761 0.999999H173.211V4.66H164.871V9.55H172.461V13.21H164.871V18.34H173.361V22H160.761V0.999999ZM176.435 1.21C177.275 1.05 178.195 0.929999 179.195 0.849999C180.215 0.749999 181.225 0.699999 182.225 0.699999C183.265 0.699999 184.305 0.789999 185.345 0.969999C186.405 1.13 187.355 1.47 188.195 1.99C189.035 2.49 189.715 3.2 190.235 4.12C190.775 5.02 191.045 6.2 191.045 7.66C191.045 8.98 190.815 10.1 190.355 11.02C189.895 11.92 189.285 12.66 188.525 13.24C187.765 13.82 186.895 14.24 185.915 14.5C184.955 14.76 183.955 14.89 182.915 14.89C182.815 14.89 182.655 14.89 182.435 14.89C182.215 14.89 181.985 14.89 181.745 14.89C181.505 14.87 181.265 14.85 181.025 14.83C180.805 14.81 180.645 14.79 180.545 14.77V22H176.435V1.21ZM182.555 4.24C182.155 4.24 181.775 4.26 181.415 4.3C181.055 4.32 180.765 4.35 180.545 4.39V11.2C180.625 11.22 180.745 11.24 180.905 11.26C181.065 11.28 181.235 11.3 181.415 11.32C181.595 11.32 181.765 11.32 181.925 11.32C182.105 11.32 182.235 11.32 182.315 11.32C182.855 11.32 183.385 11.27 183.905 11.17C184.445 11.07 184.925 10.89 185.345 10.63C185.765 10.35 186.095 9.97 186.335 9.49C186.595 9.01 186.725 8.38 186.725 7.6C186.725 6.94 186.605 6.4 186.365 5.98C186.125 5.54 185.805 5.19 185.405 4.93C185.025 4.67 184.585 4.49 184.085 4.39C183.585 4.29 183.075 4.24 182.555 4.24ZM193.603 0.999999H206.053V4.66H197.713V9.55H205.303V13.21H197.713V18.34H206.203V22H193.603V0.999999ZM223.497 21.13C222.857 21.59 222.037 21.92 221.037 22.12C220.057 22.32 219.047 22.42 218.007 22.42C216.747 22.42 215.547 22.23 214.407 21.85C213.287 21.45 212.297 20.82 211.437 19.96C210.577 19.08 209.887 17.95 209.367 16.57C208.867 15.17 208.617 13.48 208.617 11.5C208.617 9.44 208.897 7.72 209.457 6.34C210.037 4.94 210.777 3.82 211.677 2.98C212.597 2.12 213.617 1.51 214.737 1.15C215.857 0.769999 216.977 0.579999 218.097 0.579999C219.297 0.579999 220.307 0.659999 221.127 0.819999C221.967 0.979999 222.657 1.17 223.197 1.39L222.387 4.87C221.927 4.65 221.377 4.49 220.737 4.39C220.117 4.29 219.357 4.24 218.457 4.24C216.797 4.24 215.457 4.83 214.437 6.01C213.437 7.19 212.937 9.02 212.937 11.5C212.937 12.58 213.057 13.57 213.297 14.47C213.537 15.35 213.897 16.11 214.377 16.75C214.877 17.37 215.487 17.86 216.207 18.22C216.947 18.56 217.797 18.73 218.757 18.73C219.657 18.73 220.417 18.64 221.037 18.46C221.657 18.28 222.197 18.05 222.657 17.77L223.497 21.13ZM224.378 11.5C224.378 8 225.148 5.31 226.688 3.43C228.228 1.53 230.428 0.579999 233.288 0.579999C234.788 0.579999 236.098 0.839999 237.218 1.36C238.338 1.88 239.268 2.62 240.008 3.58C240.748 4.54 241.298 5.69 241.658 7.03C242.018 8.37 242.198 9.86 242.198 11.5C242.198 15 241.418 17.7 239.858 19.6C238.318 21.48 236.128 22.42 233.288 22.42C231.768 22.42 230.448 22.16 229.328 21.64C228.208 21.12 227.278 20.38 226.538 19.42C225.818 18.46 225.278 17.31 224.918 15.97C224.558 14.63 224.378 13.14 224.378 11.5ZM228.698 11.5C228.698 12.56 228.788 13.54 228.968 14.44C229.148 15.32 229.418 16.08 229.778 16.72C230.158 17.36 230.638 17.86 231.218 18.22C231.798 18.58 232.488 18.76 233.288 18.76C234.748 18.76 235.878 18.19 236.678 17.05C237.478 15.91 237.878 14.06 237.878 11.5C237.878 10.48 237.788 9.53 237.608 8.65C237.448 7.77 237.188 7 236.828 6.34C236.468 5.68 235.998 5.17 235.418 4.81C234.838 4.43 234.128 4.24 233.288 4.24C231.828 4.24 230.698 4.83 229.898 6.01C229.098 7.17 228.698 9 228.698 11.5ZM259.266 5.89C259.266 6.41 259.196 6.93 259.056 7.45C258.936 7.97 258.726 8.45 258.426 8.89C258.126 9.31 257.736 9.69 257.256 10.03C256.776 10.35 256.196 10.59 255.516 10.75V10.93C256.116 11.03 256.686 11.2 257.226 11.44C257.766 11.68 258.236 12.01 258.636 12.43C259.036 12.85 259.346 13.36 259.566 13.96C259.806 14.56 259.926 15.27 259.926 16.09C259.926 17.17 259.696 18.11 259.236 18.91C258.776 19.69 258.156 20.33 257.376 20.83C256.616 21.33 255.746 21.7 254.766 21.94C253.786 22.18 252.776 22.3 251.736 22.3C251.396 22.3 250.956 22.3 250.416 22.3C249.896 22.3 249.326 22.28 248.706 22.24C248.106 22.22 247.486 22.18 246.846 22.12C246.226 22.06 245.656 21.97 245.136 21.85V1.15C245.516 1.09 245.946 1.03 246.426 0.969999C246.926 0.909999 247.456 0.859999 248.016 0.819999C248.576 0.78 249.146 0.749999 249.726 0.729998C250.326 0.709999 250.916 0.699999 251.496 0.699999C252.476 0.699999 253.426 0.779999 254.346 0.939999C255.286 1.08 256.116 1.34 256.836 1.72C257.576 2.1 258.166 2.63 258.606 3.31C259.046 3.99 259.266 4.85 259.266 5.89ZM251.766 18.91C252.266 18.91 252.746 18.85 253.206 18.73C253.686 18.61 254.106 18.43 254.466 18.19C254.826 17.93 255.116 17.61 255.336 17.23C255.556 16.85 255.666 16.4 255.666 15.88C255.666 15.22 255.536 14.7 255.276 14.32C255.016 13.94 254.676 13.65 254.256 13.45C253.836 13.23 253.366 13.09 252.846 13.03C252.326 12.97 251.806 12.94 251.286 12.94H249.096V18.73C249.196 18.77 249.356 18.8 249.576 18.82C249.796 18.84 250.026 18.86 250.266 18.88C250.526 18.88 250.786 18.89 251.046 18.91C251.326 18.91 251.566 18.91 251.766 18.91ZM250.416 9.82C250.696 9.82 251.016 9.81 251.376 9.79C251.756 9.77 252.066 9.74 252.306 9.7C253.066 9.46 253.716 9.1 254.256 8.62C254.816 8.14 255.096 7.51 255.096 6.73C255.096 6.21 254.996 5.78 254.796 5.44C254.596 5.1 254.326 4.83 253.986 4.63C253.666 4.43 253.296 4.29 252.876 4.21C252.456 4.13 252.016 4.09 251.556 4.09C251.036 4.09 250.556 4.1 250.116 4.12C249.676 4.14 249.336 4.17 249.096 4.21V9.82H250.416ZM273.211 17.35H266.761L265.171 22H261.061L268.621 0.849999H271.651L279.211 22H274.891L273.211 17.35ZM267.811 14.05H272.311L270.751 9.37L270.121 6.07H269.971L269.341 9.4L267.811 14.05ZM291.214 4.66H286.744C286.664 6.56 286.574 8.29 286.474 9.85C286.374 11.41 286.234 12.82 286.054 14.08C285.894 15.32 285.674 16.42 285.394 17.38C285.114 18.34 284.754 19.17 284.314 19.87C284.034 20.33 283.714 20.71 283.354 21.01C283.014 21.31 282.654 21.55 282.274 21.73C281.894 21.91 281.514 22.03 281.134 22.09C280.774 22.17 280.434 22.21 280.114 22.21C279.654 22.21 279.264 22.17 278.944 22.09C278.644 22.03 278.344 21.93 278.044 21.79L278.494 18.25C278.614 18.29 278.734 18.32 278.854 18.34C278.974 18.36 279.094 18.37 279.214 18.37C279.534 18.37 279.844 18.29 280.144 18.13C280.464 17.97 280.734 17.7 280.954 17.32C281.254 16.88 281.514 16.24 281.734 15.4C281.954 14.54 282.144 13.45 282.304 12.13C282.484 10.81 282.624 9.24 282.724 7.42C282.824 5.58 282.894 3.44 282.934 0.999999H295.324V22H291.214V4.66ZM311.165 10.36L311.405 7.63H311.255L309.845 10.45L302.015 22H298.925V0.999999H303.035V12.43L302.735 15.25H302.915L304.385 12.34L312.215 0.999999H315.275V22H311.165V10.36ZM333.125 21.13C332.485 21.59 331.665 21.92 330.665 22.12C329.685 22.32 328.675 22.42 327.635 22.42C326.375 22.42 325.175 22.23 324.035 21.85C322.915 21.45 321.925 20.82 321.065 19.96C320.205 19.08 319.515 17.95 318.995 16.57C318.495 15.17 318.245 13.48 318.245 11.5C318.245 9.44 318.525 7.72 319.085 6.34C319.665 4.94 320.405 3.82 321.305 2.98C322.225 2.12 323.245 1.51 324.365 1.15C325.485 0.769999 326.605 0.579999 327.725 0.579999C328.925 0.579999 329.935 0.659999 330.755 0.819999C331.595 0.979999 332.285 1.17 332.825 1.39L332.015 4.87C331.555 4.65 331.005 4.49 330.365 4.39C329.745 4.29 328.985 4.24 328.085 4.24C326.425 4.24 325.085 4.83 324.065 6.01C323.065 7.19 322.565 9.02 322.565 11.5C322.565 12.58 322.685 13.57 322.925 14.47C323.165 15.35 323.525 16.11 324.005 16.75C324.505 17.37 325.115 17.86 325.835 18.22C326.575 18.56 327.425 18.73 328.385 18.73C329.285 18.73 330.045 18.64 330.665 18.46C331.285 18.28 331.825 18.05 332.285 17.77L333.125 21.13ZM335.663 0.999999H339.773V8.53C339.873 8.51 340.033 8.49 340.253 8.47C340.493 8.43 340.743 8.4 341.003 8.38C341.283 8.36 341.563 8.34 341.843 8.32C342.123 8.3 342.383 8.29 342.623 8.29C343.603 8.29 344.553 8.39 345.473 8.59C346.393 8.79 347.203 9.15 347.903 9.67C348.623 10.17 349.193 10.86 349.613 11.74C350.033 12.6 350.243 13.7 350.243 15.04C350.243 17.44 349.493 19.25 347.993 20.47C346.513 21.69 344.383 22.3 341.603 22.3C341.323 22.3 340.943 22.29 340.463 22.27C340.003 22.27 339.493 22.25 338.933 22.21C338.373 22.17 337.803 22.12 337.223 22.06C336.663 22 336.143 21.91 335.663 21.79V0.999999ZM341.813 18.64C342.373 18.64 342.903 18.59 343.403 18.49C343.903 18.37 344.343 18.18 344.723 17.92C345.103 17.64 345.393 17.28 345.593 16.84C345.813 16.4 345.923 15.86 345.923 15.22C345.923 14.54 345.803 13.99 345.563 13.57C345.343 13.13 345.043 12.79 344.663 12.55C344.303 12.31 343.873 12.15 343.373 12.07C342.873 11.99 342.353 11.95 341.813 11.95C341.673 11.95 341.503 11.96 341.303 11.98C341.103 12 340.903 12.02 340.703 12.04C340.503 12.06 340.313 12.09 340.133 12.13C339.973 12.15 339.853 12.17 339.773 12.19V18.46C339.993 18.52 340.283 18.57 340.643 18.61C341.023 18.63 341.413 18.64 341.813 18.64ZM355.023 15.76C354.923 14.72 354.973 13.84 355.173 13.12C355.373 12.38 355.643 11.75 355.983 11.23C356.343 10.69 356.743 10.23 357.183 9.85C357.643 9.45 358.063 9.07 358.443 8.71C358.843 8.35 359.173 7.98 359.433 7.6C359.693 7.2 359.823 6.73 359.823 6.19C359.823 5.49 359.623 4.93 359.223 4.51C358.843 4.09 358.153 3.88 357.153 3.88C356.833 3.88 356.493 3.92 356.133 4C355.773 4.06 355.413 4.16 355.053 4.3C354.693 4.42 354.343 4.57 354.003 4.75C353.683 4.91 353.393 5.08 353.133 5.26L351.633 2.38C352.393 1.86 353.263 1.43 354.243 1.09C355.243 0.749999 356.443 0.579999 357.843 0.579999C359.723 0.579999 361.193 1.04 362.253 1.96C363.313 2.86 363.843 4.08 363.843 5.62C363.843 6.64 363.703 7.49 363.423 8.17C363.163 8.83 362.833 9.4 362.433 9.88C362.033 10.34 361.593 10.75 361.113 11.11C360.633 11.47 360.193 11.86 359.793 12.28C359.393 12.68 359.053 13.15 358.773 13.69C358.493 14.23 358.353 14.92 358.353 15.76H355.023ZM354.423 20.02C354.423 19.32 354.643 18.77 355.083 18.37C355.523 17.95 356.103 17.74 356.823 17.74C357.583 17.74 358.183 17.95 358.623 18.37C359.063 18.77 359.283 19.32 359.283 20.02C359.283 20.72 359.063 21.28 358.623 21.7C358.183 22.12 357.583 22.33 356.823 22.33C356.103 22.33 355.523 22.12 355.083 21.7C354.643 21.28 354.423 20.72 354.423 20.02Z" fill="black"/>
<path d="M73.7419 67.366L74.1059 68.612H74.1759L74.4559 67.324L76.3319 62.2H77.5219L75.0439 68.57C74.7919 69.2327 74.5679 69.788 74.3719 70.236C74.1853 70.6747 73.9939 71.034 73.7979 71.314C73.6019 71.5847 73.3919 71.7807 73.1679 71.902C72.9439 72.014 72.6686 72.07 72.3419 72.07C72.0339 72.07 71.7866 72.0467 71.5999 72C71.4226 71.944 71.2546 71.8647 71.0959 71.762L71.4459 70.796C71.6326 70.8987 71.8053 70.964 71.9639 70.992C72.1226 71.02 72.2673 71.034 72.3979 71.034C72.6593 71.034 72.8786 70.9033 73.0559 70.642C73.2333 70.3713 73.3873 69.9747 73.5179 69.452L69.8919 62.2H71.2359L73.7419 67.366ZM80.5422 67.464H79.8842V72H78.7222V62.2H79.8842V66.764L80.5142 66.568L83.8042 62.2H85.1482L81.8722 66.414L81.2842 66.876L81.9982 67.436L85.5822 72H84.1122L80.5422 67.464ZM91.9291 69.284H88.3171L87.3371 72H86.1891L89.8991 62.046H90.4311L94.1551 72H92.9371L91.9291 69.284ZM88.6951 68.276H91.5791L90.4871 65.294L90.1371 63.81H90.1231L89.7731 65.322L88.6951 68.276ZM99.2786 62.2H100.399V66.764L101.001 66.568L103.843 62.2H105.131L102.303 66.456L101.743 66.904L102.443 67.478L105.565 72H104.137L101.043 67.464H100.399V72H99.2786V67.296L98.6906 67.492L95.5966 72H94.2526L97.3466 67.618L98.0186 67.086L97.3746 66.596L94.4486 62.2H95.8066L98.6486 66.596H99.2786V62.2ZM112.728 65.364L112.812 64.244H112.756L112.154 65.392L107.422 72H106.736V62.2H107.898V68.92L107.8 70.026H107.856L108.472 68.878L113.204 62.2H113.89V72H112.728V65.364ZM122.593 63.236H119.541V72H118.379V63.236H115.327V62.2H122.593V63.236ZM124.031 62.2H129.365V63.236H125.193V66.442H129.015V67.478H125.193V70.964H129.435V72H124.031V62.2ZM140.953 63.236H136.431V72H135.269V62.2H142.115V72H140.953V63.236ZM144.498 62.298C144.852 62.214 145.235 62.158 145.646 62.13C146.056 62.102 146.462 62.088 146.864 62.088C147.293 62.088 147.727 62.13 148.166 62.214C148.614 62.298 149.02 62.452 149.384 62.676C149.748 62.9 150.042 63.208 150.266 63.6C150.499 63.992 150.616 64.4913 150.616 65.098C150.616 65.6953 150.508 66.1993 150.294 66.61C150.079 67.0207 149.794 67.3567 149.44 67.618C149.085 67.87 148.679 68.052 148.222 68.164C147.764 68.276 147.293 68.332 146.808 68.332C146.761 68.332 146.682 68.332 146.57 68.332C146.467 68.332 146.355 68.332 146.234 68.332C146.122 68.3227 146.01 68.3133 145.898 68.304C145.786 68.2947 145.706 68.2853 145.66 68.276V72H144.498V62.298ZM146.892 63.096C146.649 63.096 146.416 63.1007 146.192 63.11C145.968 63.1193 145.79 63.1427 145.66 63.18V67.24C145.706 67.2587 145.781 67.2727 145.884 67.282C145.986 67.282 146.094 67.2867 146.206 67.296C146.318 67.296 146.425 67.296 146.528 67.296C146.63 67.296 146.705 67.296 146.752 67.296C147.069 67.296 147.382 67.268 147.69 67.212C148.007 67.1467 148.292 67.0347 148.544 66.876C148.796 66.7173 148.996 66.4933 149.146 66.204C149.304 65.9147 149.384 65.546 149.384 65.098C149.384 64.7153 149.309 64.398 149.16 64.146C149.02 63.8847 148.828 63.6793 148.586 63.53C148.352 63.3713 148.086 63.2593 147.788 63.194C147.489 63.1287 147.19 63.096 146.892 63.096ZM152.318 62.2H157.652V63.236H153.48V66.442H157.302V67.478H153.48V70.964H157.722V72H152.318V62.2ZM167.608 73.806H166.81L166.6 72H159.726L159.516 73.806H158.704V70.964H159.698C159.772 70.8613 159.884 70.6233 160.034 70.25C160.192 69.8673 160.346 69.326 160.496 68.626C160.654 67.9167 160.794 67.0347 160.916 65.98C161.037 64.916 161.098 63.656 161.098 62.2H166.334V70.964H167.608V73.806ZM165.172 70.964V63.236H162.19C162.162 64.2627 162.106 65.1867 162.022 66.008C161.947 66.8293 161.854 67.5573 161.742 68.192C161.63 68.8173 161.504 69.3587 161.364 69.816C161.224 70.2733 161.079 70.656 160.93 70.964H165.172ZM174.873 63.236H170.351V72H169.189V62.2H176.035V72H174.873V63.236ZM178.012 67.1C178.012 65.4667 178.357 64.216 179.048 63.348C179.738 62.4707 180.723 62.032 182.002 62.032C182.692 62.032 183.29 62.1533 183.794 62.396C184.298 62.6387 184.713 62.984 185.04 63.432C185.376 63.8707 185.623 64.4027 185.782 65.028C185.94 65.644 186.02 66.3347 186.02 67.1C186.02 68.7333 185.67 69.9887 184.97 70.866C184.279 71.734 183.29 72.168 182.002 72.168C181.32 72.168 180.728 72.0467 180.224 71.804C179.729 71.5613 179.314 71.2207 178.978 70.782C178.651 70.334 178.408 69.802 178.25 69.186C178.091 68.5607 178.012 67.8653 178.012 67.1ZM179.244 67.1C179.244 67.6413 179.295 68.1547 179.398 68.64C179.51 69.1253 179.678 69.5547 179.902 69.928C180.126 70.292 180.41 70.586 180.756 70.81C181.11 71.0247 181.526 71.132 182.002 71.132C182.87 71.132 183.551 70.8053 184.046 70.152C184.54 69.4893 184.788 68.472 184.788 67.1C184.788 66.568 184.732 66.0593 184.62 65.574C184.517 65.0793 184.349 64.65 184.116 64.286C183.892 63.9127 183.602 63.6187 183.248 63.404C182.902 63.18 182.487 63.068 182.002 63.068C181.143 63.068 180.466 63.3993 179.972 64.062C179.486 64.7153 179.244 65.728 179.244 67.1ZM193.072 63.236H190.146C190.053 65.1027 189.927 66.6567 189.768 67.898C189.619 69.13 189.39 70.0913 189.082 70.782C188.877 71.23 188.634 71.5567 188.354 71.762C188.074 71.9673 187.771 72.07 187.444 72.07C187.276 72.07 187.132 72.056 187.01 72.028C186.889 72.0093 186.772 71.9767 186.66 71.93L186.814 70.922C186.908 70.95 187.006 70.964 187.108 70.964C187.267 70.964 187.421 70.9127 187.57 70.81C187.729 70.7073 187.883 70.516 188.032 70.236C188.163 69.984 188.284 69.648 188.396 69.228C188.518 68.808 188.62 68.276 188.704 67.632C188.798 66.988 188.872 66.2227 188.928 65.336C188.984 64.44 189.026 63.3947 189.054 62.2H194.234V72H193.072V63.236ZM201.277 69.284H197.665L196.685 72H195.537L199.247 62.046H199.779L203.503 72H202.285L201.277 69.284ZM198.043 68.276H200.927L199.835 65.294L199.485 63.81H199.471L199.121 65.322L198.043 68.276ZM210.054 63.236H205.966V72H204.804V62.2H210.054V63.236ZM214.703 69.284H211.091L210.111 72H208.963L212.673 62.046H213.205L216.929 72H215.711L214.703 69.284ZM211.469 68.276H214.353L213.261 65.294L212.911 63.81H212.897L212.547 65.322L211.469 68.276ZM218.23 62.2H223.564V63.236H219.392V66.442H223.214V67.478H219.392V70.964H223.634V72H218.23V62.2ZM233.268 65.42L233.408 63.95H233.338L232.806 65.294L230.258 69.718H229.908L227.206 65.28L226.702 63.95H226.632L226.828 65.406V72H225.736V62.2H226.604L229.67 67.212L230.132 68.304H230.16L230.594 67.184L233.52 62.2H234.43V72H233.268V65.42ZM244.034 62.2H245.196V72H244.034V62.2ZM236.81 62.2H237.972V66.008C238.019 65.9987 238.089 65.9893 238.182 65.98C238.275 65.9613 238.378 65.9473 238.49 65.938C238.602 65.9287 238.714 65.9193 238.826 65.91C238.947 65.9007 239.064 65.896 239.176 65.896C239.615 65.896 240.039 65.9427 240.45 66.036C240.87 66.12 241.239 66.274 241.556 66.498C241.873 66.722 242.125 67.0253 242.312 67.408C242.508 67.7813 242.606 68.2573 242.606 68.836C242.606 69.396 242.517 69.886 242.34 70.306C242.163 70.7167 241.911 71.0573 241.584 71.328C241.267 71.5893 240.884 71.7853 240.436 71.916C239.988 72.0467 239.493 72.112 238.952 72.112C238.821 72.112 238.667 72.1073 238.49 72.098C238.322 72.098 238.14 72.0887 237.944 72.07C237.757 72.0607 237.566 72.042 237.37 72.014C237.174 71.986 236.987 71.9487 236.81 71.902V62.2ZM239.05 71.104C239.722 71.104 240.277 70.922 240.716 70.558C241.155 70.194 241.374 69.648 241.374 68.92C241.374 68.528 241.309 68.2013 241.178 67.94C241.047 67.6787 240.87 67.4733 240.646 67.324C240.431 67.1653 240.179 67.058 239.89 67.002C239.61 66.9367 239.311 66.904 238.994 66.904C238.826 66.904 238.639 66.918 238.434 66.946C238.229 66.974 238.075 67.002 237.972 67.03V71.02C238.224 71.076 238.583 71.104 239.05 71.104ZM247.57 62.2H252.904V63.236H248.732V66.442H252.554V67.478H248.732V70.964H252.974V72H247.57V62.2ZM266.209 73.806H265.411L265.201 72H258.327L258.117 73.806H257.305V70.964H258.299C258.374 70.8613 258.486 70.6233 258.635 70.25C258.794 69.8673 258.948 69.326 259.097 68.626C259.256 67.9167 259.396 67.0347 259.517 65.98C259.639 64.916 259.699 63.656 259.699 62.2H264.935V70.964H266.209V73.806ZM263.773 70.964V63.236H260.791C260.763 64.2627 260.707 65.1867 260.623 66.008C260.549 66.8293 260.455 67.5573 260.343 68.192C260.231 68.8173 260.105 69.3587 259.965 69.816C259.825 70.2733 259.681 70.656 259.531 70.964H263.773ZM272.453 69.284H268.841L267.861 72H266.713L270.423 62.046H270.955L274.679 72H273.461L272.453 69.284ZM269.219 68.276H272.103L271.011 65.294L270.661 63.81H270.647L270.297 65.322L269.219 68.276ZM281.365 63.236H278.313V72H277.151V63.236H274.099V62.2H281.365V63.236ZM290.026 62.2H291.188V72H290.026V62.2ZM282.802 62.2H283.964V66.008C284.011 65.9987 284.081 65.9893 284.174 65.98C284.268 65.9613 284.37 65.9473 284.482 65.938C284.594 65.9287 284.706 65.9193 284.818 65.91C284.94 65.9007 285.056 65.896 285.168 65.896C285.607 65.896 286.032 65.9427 286.442 66.036C286.862 66.12 287.231 66.274 287.548 66.498C287.866 66.722 288.118 67.0253 288.304 67.408C288.5 67.7813 288.598 68.2573 288.598 68.836C288.598 69.396 288.51 69.886 288.332 70.306C288.155 70.7167 287.903 71.0573 287.576 71.328C287.259 71.5893 286.876 71.7853 286.428 71.916C285.98 72.0467 285.486 72.112 284.944 72.112C284.814 72.112 284.66 72.1073 284.482 72.098C284.314 72.098 284.132 72.0887 283.936 72.07C283.75 72.0607 283.558 72.042 283.362 72.014C283.166 71.986 282.98 71.9487 282.802 71.902V62.2ZM285.042 71.104C285.714 71.104 286.27 70.922 286.708 70.558C287.147 70.194 287.366 69.648 287.366 68.92C287.366 68.528 287.301 68.2013 287.17 67.94C287.04 67.6787 286.862 67.4733 286.638 67.324C286.424 67.1653 286.172 67.058 285.882 67.002C285.602 66.9367 285.304 66.904 284.986 66.904C284.818 66.904 284.632 66.918 284.426 66.946C284.221 66.974 284.067 67.002 283.964 67.03V71.02C284.216 71.076 284.576 71.104 285.042 71.104ZM302.978 63.236H298.456V72H297.294V62.2H304.14V72H302.978V63.236ZM306.117 67.1C306.117 65.4667 306.462 64.216 307.153 63.348C307.844 62.4707 308.828 62.032 310.107 62.032C310.798 62.032 311.395 62.1533 311.899 62.396C312.403 62.6387 312.818 62.984 313.145 63.432C313.481 63.8707 313.728 64.4027 313.887 65.028C314.046 65.644 314.125 66.3347 314.125 67.1C314.125 68.7333 313.775 69.9887 313.075 70.866C312.384 71.734 311.395 72.168 310.107 72.168C309.426 72.168 308.833 72.0467 308.329 71.804C307.834 71.5613 307.419 71.2207 307.083 70.782C306.756 70.334 306.514 69.802 306.355 69.186C306.196 68.5607 306.117 67.8653 306.117 67.1ZM307.349 67.1C307.349 67.6413 307.4 68.1547 307.503 68.64C307.615 69.1253 307.783 69.5547 308.007 69.928C308.231 70.292 308.516 70.586 308.861 70.81C309.216 71.0247 309.631 71.132 310.107 71.132C310.975 71.132 311.656 70.8053 312.151 70.152C312.646 69.4893 312.893 68.472 312.893 67.1C312.893 66.568 312.837 66.0593 312.725 65.574C312.622 65.0793 312.454 64.65 312.221 64.286C311.997 63.9127 311.708 63.6187 311.353 63.404C311.008 63.18 310.592 63.068 310.107 63.068C309.248 63.068 308.572 63.3993 308.077 64.062C307.592 64.7153 307.349 65.728 307.349 67.1ZM316.093 62.2H321.427V63.236H317.255V66.442H321.077V67.478H317.255V70.964H321.497V72H316.093V62.2ZM324.355 67.366V66.386H324.579C324.663 66.386 324.766 66.386 324.887 66.386C325.009 66.386 325.13 66.3813 325.251 66.372C325.382 66.3627 325.503 66.358 325.615 66.358C325.737 66.3487 325.835 66.3347 325.909 66.316C326.152 66.2787 326.381 66.218 326.595 66.134C326.81 66.0407 326.997 65.924 327.155 65.784C327.314 65.644 327.44 65.4807 327.533 65.294C327.627 65.1073 327.673 64.902 327.673 64.678C327.673 64.37 327.622 64.1133 327.519 63.908C327.417 63.7027 327.272 63.5393 327.085 63.418C326.908 63.2873 326.698 63.1987 326.455 63.152C326.222 63.096 325.97 63.068 325.699 63.068C325.195 63.068 324.766 63.1053 324.411 63.18C324.057 63.2453 323.772 63.3293 323.557 63.432L323.249 62.508C323.436 62.4053 323.772 62.3027 324.257 62.2C324.743 62.088 325.289 62.032 325.895 62.032C326.269 62.032 326.633 62.074 326.987 62.158C327.351 62.2327 327.673 62.3633 327.953 62.55C328.243 62.7273 328.471 62.9747 328.639 63.292C328.817 63.6 328.905 63.9827 328.905 64.44C328.905 64.9067 328.751 65.3547 328.443 65.784C328.135 66.204 327.673 66.5073 327.057 66.694V66.75C327.72 66.8433 328.243 67.0907 328.625 67.492C329.008 67.8933 329.199 68.43 329.199 69.102C329.199 69.634 329.092 70.096 328.877 70.488C328.672 70.8707 328.397 71.188 328.051 71.44C327.715 71.692 327.323 71.8787 326.875 72C326.437 72.112 325.989 72.168 325.531 72.168C324.915 72.168 324.407 72.1307 324.005 72.056C323.613 71.9907 323.287 71.9067 323.025 71.804L323.319 70.754C323.534 70.8567 323.833 70.9453 324.215 71.02C324.607 71.0947 325.079 71.132 325.629 71.132C325.919 71.132 326.203 71.0947 326.483 71.02C326.763 70.936 327.011 70.8147 327.225 70.656C327.449 70.488 327.627 70.2827 327.757 70.04C327.897 69.7973 327.967 69.508 327.967 69.172C327.967 68.584 327.762 68.1547 327.351 67.884C326.941 67.604 326.404 67.4407 325.741 67.394C325.629 67.3847 325.522 67.38 325.419 67.38C325.326 67.3707 325.228 67.366 325.125 67.366H324.355ZM338.957 73.806H338.159L337.949 72H331.075L330.865 73.806H330.053V70.964H331.047C331.122 70.8613 331.234 70.6233 331.383 70.25C331.542 69.8673 331.696 69.326 331.845 68.626C332.004 67.9167 332.144 67.0347 332.265 65.98C332.387 64.916 332.447 63.656 332.447 62.2H337.683V70.964H338.957V73.806ZM336.521 70.964V63.236H333.539C333.511 64.2627 333.455 65.1867 333.371 66.008C333.297 66.8293 333.203 67.5573 333.091 68.192C332.979 68.8173 332.853 69.3587 332.713 69.816C332.573 70.2733 332.429 70.656 332.279 70.964H336.521ZM342.359 67.464H341.701V72H340.539V62.2H341.701V66.764L342.331 66.568L345.621 62.2H346.965L343.689 66.414L343.101 66.876L343.815 67.436L347.399 72H345.929L342.359 67.464ZM355.076 65.364L355.16 64.244H355.104L354.502 65.392L349.77 72H349.084V62.2H350.246V68.92L350.148 70.026H350.204L350.82 68.878L355.552 62.2H356.238V72H355.076V65.364ZM358.109 71.398C358.109 71.174 358.184 70.992 358.333 70.852C358.482 70.712 358.674 70.642 358.907 70.642C359.196 70.642 359.43 70.7447 359.607 70.95C359.794 71.1553 359.887 71.454 359.887 71.846C359.887 72.182 359.84 72.476 359.747 72.728C359.654 72.98 359.532 73.1947 359.383 73.372C359.234 73.5587 359.07 73.708 358.893 73.82C358.716 73.9413 358.538 74.03 358.361 74.086L358.011 73.54C358.347 73.4093 358.594 73.204 358.753 72.924C358.921 72.6533 359.005 72.378 359.005 72.098C358.921 72.126 358.842 72.14 358.767 72.14C358.58 72.14 358.422 72.0793 358.291 71.958C358.17 71.8273 358.109 71.6407 358.109 71.398ZM6.44274 90.364L6.52674 89.244H6.47074L5.86874 90.392L1.13674 97H0.450742V87.2H1.61274V93.92L1.51474 95.026H1.57074L2.18674 93.878L6.91874 87.2H7.60474V97H6.44274V90.364ZM21.2445 90.42L21.3845 88.95H21.3145L20.7825 90.294L18.2345 94.718H17.8845L15.1825 90.28L14.6785 88.95H14.6085L14.8045 90.406V97H13.7125V87.2H14.5805L17.6465 92.212L18.1085 93.304H18.1365L18.5705 92.184L21.4965 87.2H22.4065V97H21.2445V90.42ZM32.0107 87.2H33.1727V97H32.0107V87.2ZM24.7867 87.2H25.9487V91.008C25.9953 90.9987 26.0653 90.9893 26.1587 90.98C26.252 90.9613 26.3547 90.9473 26.4667 90.938C26.5787 90.9287 26.6907 90.9193 26.8027 90.91C26.924 90.9007 27.0407 90.896 27.1527 90.896C27.5913 90.896 28.016 90.9427 28.4267 91.036C28.8467 91.12 29.2153 91.274 29.5327 91.498C29.85 91.722 30.102 92.0253 30.2887 92.408C30.4847 92.7813 30.5827 93.2573 30.5827 93.836C30.5827 94.396 30.494 94.886 30.3167 95.306C30.1393 95.7167 29.8873 96.0573 29.5607 96.328C29.2433 96.5893 28.8607 96.7853 28.4127 96.916C27.9647 97.0467 27.47 97.112 26.9287 97.112C26.798 97.112 26.644 97.1073 26.4667 97.098C26.2987 97.098 26.1167 97.0887 25.9207 97.07C25.734 97.0607 25.5427 97.042 25.3467 97.014C25.1507 96.986 24.964 96.9487 24.7867 96.902V87.2ZM27.0267 96.104C27.6987 96.104 28.254 95.922 28.6927 95.558C29.1313 95.194 29.3507 94.648 29.3507 93.92C29.3507 93.528 29.2853 93.2013 29.1547 92.94C29.024 92.6787 28.8467 92.4733 28.6227 92.324C28.408 92.1653 28.156 92.058 27.8667 92.002C27.5867 91.9367 27.288 91.904 26.9707 91.904C26.8027 91.904 26.616 91.918 26.4107 91.946C26.2053 91.974 26.0513 92.002 25.9487 92.03V96.02C26.2007 96.076 26.56 96.104 27.0267 96.104ZM44.9629 88.236H40.4409V97H39.2789V87.2H46.1249V97H44.9629V88.236ZM48.1014 92.1C48.1014 90.4667 48.4467 89.216 49.1374 88.348C49.828 87.4707 50.8127 87.032 52.0914 87.032C52.782 87.032 53.3794 87.1533 53.8834 87.396C54.3874 87.6387 54.8027 87.984 55.1294 88.432C55.4654 88.8707 55.7127 89.4027 55.8714 90.028C56.03 90.644 56.1094 91.3347 56.1094 92.1C56.1094 93.7333 55.7594 94.9887 55.0594 95.866C54.3687 96.734 53.3794 97.168 52.0914 97.168C51.41 97.168 50.8174 97.0467 50.3134 96.804C49.8187 96.5613 49.4034 96.2207 49.0674 95.782C48.7407 95.334 48.498 94.802 48.3394 94.186C48.1807 93.5607 48.1014 92.8653 48.1014 92.1ZM49.3334 92.1C49.3334 92.6413 49.3847 93.1547 49.4874 93.64C49.5994 94.1253 49.7674 94.5547 49.9914 94.928C50.2154 95.292 50.5 95.586 50.8454 95.81C51.2 96.0247 51.6154 96.132 52.0914 96.132C52.9594 96.132 53.6407 95.8053 54.1354 95.152C54.63 94.4893 54.8774 93.472 54.8774 92.1C54.8774 91.568 54.8214 91.0593 54.7094 90.574C54.6067 90.0793 54.4387 89.65 54.2054 89.286C53.9814 88.9127 53.692 88.6187 53.3374 88.404C52.992 88.18 52.5767 88.068 52.0914 88.068C51.2327 88.068 50.556 88.3993 50.0614 89.062C49.576 89.7153 49.3334 90.728 49.3334 92.1ZM59.8977 92.464H59.2397V97H58.0777V87.2H59.2397V91.764L59.8697 91.568L63.1597 87.2H64.5037L61.2277 91.414L60.6397 91.876L61.3537 92.436L64.9377 97H63.4677L59.8977 92.464ZM71.2846 94.284H67.6726L66.6926 97H65.5446L69.2546 87.046H69.7866L73.5106 97H72.2926L71.2846 94.284ZM68.0506 93.276H70.9346L69.8426 90.294L69.4926 88.81H69.4786L69.1286 90.322L68.0506 93.276ZM78.6341 87.2H79.7541V91.764L80.3561 91.568L83.1981 87.2H84.4861L81.6581 91.456L81.0981 91.904L81.7981 92.478L84.9201 97H83.4921L80.3981 92.464H79.7541V97H78.6341V92.296L78.0461 92.492L74.9521 97H73.6081L76.7021 92.618L77.3741 92.086L76.7301 91.596L73.8041 87.2H75.1621L78.0041 91.596H78.6341V87.2ZM86.0914 87.2H91.4254V88.236H87.2534V91.442H91.0754V92.478H87.2534V95.964H91.4954V97H86.0914V87.2ZM101.129 90.42L101.269 88.95H101.199L100.667 90.294L98.1192 94.718H97.7692L95.0672 90.28L94.5632 88.95H94.4932L94.6892 90.406V97H93.5972V87.2H94.4652L97.5312 92.212L97.9932 93.304H98.0212L98.4552 92.184L101.381 87.2H102.291V97H101.129V90.42ZM114.312 89.44C114.312 89.6733 114.275 89.9113 114.2 90.154C114.125 90.3967 114.013 90.6253 113.864 90.84C113.715 91.0453 113.523 91.2273 113.29 91.386C113.057 91.5447 112.781 91.666 112.464 91.75V91.806C112.744 91.8527 113.01 91.932 113.262 92.044C113.523 92.156 113.752 92.31 113.948 92.506C114.144 92.702 114.303 92.94 114.424 93.22C114.545 93.5 114.606 93.8313 114.606 94.214C114.606 94.718 114.499 95.1567 114.284 95.53C114.079 95.894 113.803 96.1927 113.458 96.426C113.122 96.6593 112.735 96.832 112.296 96.944C111.857 97.056 111.409 97.112 110.952 97.112C110.793 97.112 110.607 97.112 110.392 97.112C110.177 97.112 109.953 97.1027 109.72 97.084C109.487 97.0747 109.253 97.056 109.02 97.028C108.787 97.0093 108.581 96.9767 108.404 96.93V87.284C108.749 87.228 109.151 87.1813 109.608 87.144C110.065 87.1067 110.565 87.088 111.106 87.088C111.47 87.088 111.839 87.1207 112.212 87.186C112.595 87.242 112.94 87.3587 113.248 87.536C113.556 87.704 113.808 87.942 114.004 88.25C114.209 88.558 114.312 88.9547 114.312 89.44ZM111.064 96.104C111.363 96.104 111.652 96.0713 111.932 96.006C112.212 95.9313 112.459 95.8193 112.674 95.67C112.889 95.5113 113.057 95.32 113.178 95.096C113.309 94.872 113.374 94.606 113.374 94.298C113.374 93.9153 113.295 93.6073 113.136 93.374C112.987 93.1407 112.786 92.9587 112.534 92.828C112.291 92.6973 112.016 92.6087 111.708 92.562C111.4 92.5153 111.092 92.492 110.784 92.492H109.566V96.006C109.631 96.0247 109.725 96.0387 109.846 96.048C109.967 96.0573 110.098 96.0667 110.238 96.076C110.378 96.0853 110.523 96.0947 110.672 96.104C110.821 96.104 110.952 96.104 111.064 96.104ZM110.294 91.512C110.453 91.512 110.644 91.5073 110.868 91.498C111.092 91.4887 111.279 91.4747 111.428 91.456C111.652 91.3813 111.862 91.2927 112.058 91.19C112.254 91.078 112.427 90.952 112.576 90.812C112.735 90.6627 112.856 90.4947 112.94 90.308C113.033 90.112 113.08 89.902 113.08 89.678C113.08 89.37 113.019 89.118 112.898 88.922C112.786 88.7167 112.632 88.5533 112.436 88.432C112.24 88.3107 112.016 88.2267 111.764 88.18C111.512 88.124 111.255 88.096 110.994 88.096C110.686 88.096 110.401 88.1053 110.14 88.124C109.888 88.1333 109.697 88.152 109.566 88.18V91.512H110.294ZM121.242 94.284H117.63L116.65 97H115.502L119.212 87.046H119.744L123.468 97H122.25L121.242 94.284ZM118.008 93.276H120.892L119.8 90.294L119.45 88.81H119.436L119.086 90.322L118.008 93.276ZM132.301 90.42L132.441 88.95H132.371L131.839 90.294L129.291 94.718H128.941L126.239 90.28L125.735 88.95H125.665L125.861 90.406V97H124.769V87.2H125.637L128.703 92.212L129.165 93.304H129.193L129.627 92.184L132.553 87.2H133.463V97H132.301V90.42ZM144.633 88.236H141.707C141.614 90.1027 141.488 91.6567 141.329 92.898C141.18 94.13 140.951 95.0913 140.643 95.782C140.438 96.23 140.195 96.5567 139.915 96.762C139.635 96.9673 139.332 97.07 139.005 97.07C138.837 97.07 138.692 97.056 138.571 97.028C138.45 97.0093 138.333 96.9767 138.221 96.93L138.375 95.922C138.468 95.95 138.566 95.964 138.669 95.964C138.828 95.964 138.982 95.9127 139.131 95.81C139.29 95.7073 139.444 95.516 139.593 95.236C139.724 94.984 139.845 94.648 139.957 94.228C140.078 93.808 140.181 93.276 140.265 92.632C140.358 91.988 140.433 91.2227 140.489 90.336C140.545 89.44 140.587 88.3947 140.615 87.2H145.795V97H144.633V88.236ZM150.933 92.366L151.297 93.612H151.367L151.647 92.324L153.523 87.2H154.713L152.235 93.57C151.983 94.2327 151.759 94.788 151.563 95.236C151.377 95.6747 151.185 96.034 150.989 96.314C150.793 96.5847 150.583 96.7807 150.359 96.902C150.135 97.014 149.86 97.07 149.533 97.07C149.225 97.07 148.978 97.0467 148.791 97C148.614 96.944 148.446 96.8647 148.287 96.762L148.637 95.796C148.824 95.8987 148.997 95.964 149.155 95.992C149.314 96.02 149.459 96.034 149.589 96.034C149.851 96.034 150.07 95.9033 150.247 95.642C150.425 95.3713 150.579 94.9747 150.709 94.452L147.083 87.2H148.427L150.933 92.366ZM156.936 87.2V90.448C156.936 91.7267 157.514 92.366 158.672 92.366C159.11 92.366 159.521 92.31 159.904 92.198C160.286 92.0767 160.599 91.918 160.842 91.722V87.2H162.004V97H160.842V92.772C160.59 92.912 160.258 93.052 159.848 93.192C159.437 93.332 158.966 93.402 158.434 93.402C158.042 93.402 157.682 93.36 157.356 93.276C157.029 93.1827 156.749 93.0333 156.516 92.828C156.282 92.6133 156.1 92.3287 155.97 91.974C155.839 91.6193 155.774 91.1807 155.774 90.658V87.2H156.936ZM164.39 97V87.2H165.552V95.964H168.758V87.2H169.92V95.964H173.126V87.2H174.288V97H164.39ZM182.66 90.364L182.744 89.244H182.688L182.086 90.392L177.354 97H176.668V87.2H177.83V93.92L177.732 95.026H177.788L178.404 93.878L183.136 87.2H183.822V97H182.66V90.364ZM186.197 87.2H191.531V88.236H187.359V91.442H191.181V92.478H187.359V95.964H191.601V97H186.197V87.2ZM203.119 88.236H198.597V97H197.435V87.2H204.281V97H203.119V88.236ZM206.664 87.298C207.018 87.214 207.401 87.158 207.812 87.13C208.222 87.102 208.628 87.088 209.03 87.088C209.459 87.088 209.893 87.13 210.332 87.214C210.78 87.298 211.186 87.452 211.55 87.676C211.914 87.9 212.208 88.208 212.432 88.6C212.665 88.992 212.782 89.4913 212.782 90.098C212.782 90.6953 212.674 91.1993 212.46 91.61C212.245 92.0207 211.96 92.3567 211.606 92.618C211.251 92.87 210.845 93.052 210.388 93.164C209.93 93.276 209.459 93.332 208.974 93.332C208.927 93.332 208.848 93.332 208.736 93.332C208.633 93.332 208.521 93.332 208.4 93.332C208.288 93.3227 208.176 93.3133 208.064 93.304C207.952 93.2947 207.872 93.2853 207.826 93.276V97H206.664V87.298ZM209.058 88.096C208.815 88.096 208.582 88.1007 208.358 88.11C208.134 88.1193 207.956 88.1427 207.826 88.18V92.24C207.872 92.2587 207.947 92.2727 208.05 92.282C208.152 92.282 208.26 92.2867 208.372 92.296C208.484 92.296 208.591 92.296 208.694 92.296C208.796 92.296 208.871 92.296 208.918 92.296C209.235 92.296 209.548 92.268 209.856 92.212C210.173 92.1467 210.458 92.0347 210.71 91.876C210.962 91.7173 211.162 91.4933 211.312 91.204C211.47 90.9147 211.55 90.546 211.55 90.098C211.55 89.7153 211.475 89.398 211.326 89.146C211.186 88.8847 210.994 88.6793 210.752 88.53C210.518 88.3713 210.252 88.2593 209.954 88.194C209.655 88.1287 209.356 88.096 209.058 88.096ZM214.484 87.2H219.818V88.236H215.646V91.442H219.468V92.478H215.646V95.964H219.888V97H214.484V87.2ZM229.774 98.806H228.976L228.766 97H221.892L221.682 98.806H220.87V95.964H221.864C221.938 95.8613 222.05 95.6233 222.2 95.25C222.358 94.8673 222.512 94.326 222.662 93.626C222.82 92.9167 222.96 92.0347 223.082 90.98C223.203 89.916 223.264 88.656 223.264 87.2H228.5V95.964H229.774V98.806ZM227.338 95.964V88.236H224.356C224.328 89.2627 224.272 90.1867 224.188 91.008C224.113 91.8293 224.02 92.5573 223.908 93.192C223.796 93.8173 223.67 94.3587 223.53 94.816C223.39 95.2733 223.245 95.656 223.096 95.964H227.338ZM236.891 88.236H233.965C233.872 90.1027 233.746 91.6567 233.587 92.898C233.438 94.13 233.209 95.0913 232.901 95.782C232.696 96.23 232.453 96.5567 232.173 96.762C231.893 96.9673 231.59 97.07 231.263 97.07C231.095 97.07 230.95 97.056 230.829 97.028C230.708 97.0093 230.591 96.9767 230.479 96.93L230.633 95.922C230.726 95.95 230.824 95.964 230.927 95.964C231.086 95.964 231.24 95.9127 231.389 95.81C231.548 95.7073 231.702 95.516 231.851 95.236C231.982 94.984 232.103 94.648 232.215 94.228C232.336 93.808 232.439 93.276 232.523 92.632C232.616 91.988 232.691 91.2227 232.747 90.336C232.803 89.44 232.845 88.3947 232.873 87.2H238.053V97H236.891V88.236ZM240.027 92.1C240.027 90.4667 240.372 89.216 241.063 88.348C241.754 87.4707 242.738 87.032 244.017 87.032C244.708 87.032 245.305 87.1533 245.809 87.396C246.313 87.6387 246.728 87.984 247.055 88.432C247.391 88.8707 247.638 89.4027 247.797 90.028C247.956 90.644 248.035 91.3347 248.035 92.1C248.035 93.7333 247.685 94.9887 246.985 95.866C246.294 96.734 245.305 97.168 244.017 97.168C243.336 97.168 242.743 97.0467 242.239 96.804C241.744 96.5613 241.329 96.2207 240.993 95.782C240.666 95.334 240.424 94.802 240.265 94.186C240.106 93.5607 240.027 92.8653 240.027 92.1ZM241.259 92.1C241.259 92.6413 241.31 93.1547 241.413 93.64C241.525 94.1253 241.693 94.5547 241.917 94.928C242.141 95.292 242.426 95.586 242.771 95.81C243.126 96.0247 243.541 96.132 244.017 96.132C244.885 96.132 245.566 95.8053 246.061 95.152C246.556 94.4893 246.803 93.472 246.803 92.1C246.803 91.568 246.747 91.0593 246.635 90.574C246.532 90.0793 246.364 89.65 246.131 89.286C245.907 88.9127 245.618 88.6187 245.263 88.404C244.918 88.18 244.502 88.068 244.017 88.068C243.158 88.068 242.482 88.3993 241.987 89.062C241.502 89.7153 241.259 90.728 241.259 92.1ZM253.552 87.2H254.672V91.764L255.274 91.568L258.116 87.2H259.404L256.576 91.456L256.016 91.904L256.716 92.478L259.838 97H258.41L255.316 92.464H254.672V97H253.552V92.296L252.964 92.492L249.87 97H248.526L251.62 92.618L252.292 92.086L251.648 91.596L248.722 87.2H250.08L252.922 91.596H253.552V87.2ZM261.009 87.2H266.343V88.236H262.171V91.442H265.993V92.478H262.171V95.964H266.413V97H261.009V87.2ZM274.381 92.506H269.677V97H268.515V87.2H269.677V91.47H274.381V87.2H275.543V97H274.381V92.506ZM283.913 90.364L283.997 89.244H283.941L283.339 90.392L278.607 97H277.921V87.2H279.083V93.92L278.985 95.026H279.041L279.657 93.878L284.389 87.2H285.075V97H283.913V90.364ZM293.037 97H291.875V92.73L290.433 93.038L287.997 97H286.625L288.809 93.514L289.663 92.912C289.327 92.8373 289.014 92.7253 288.725 92.576C288.445 92.4173 288.197 92.2213 287.983 91.988C287.777 91.7453 287.614 91.4653 287.493 91.148C287.381 90.8307 287.325 90.4667 287.325 90.056C287.325 89.4867 287.418 89.0153 287.605 88.642C287.801 88.2593 288.062 87.956 288.389 87.732C288.725 87.4987 289.112 87.3353 289.551 87.242C289.999 87.1393 290.47 87.088 290.965 87.088C291.282 87.088 291.618 87.102 291.973 87.13C292.337 87.158 292.691 87.214 293.037 87.298V97ZM290.909 88.096C290.601 88.096 290.307 88.1287 290.027 88.194C289.747 88.25 289.495 88.3527 289.271 88.502C289.056 88.6513 288.883 88.852 288.753 89.104C288.622 89.356 288.557 89.6733 288.557 90.056C288.557 90.4107 288.617 90.714 288.739 90.966C288.869 91.218 289.042 91.428 289.257 91.596C289.471 91.7547 289.719 91.8713 289.999 91.946C290.288 92.0207 290.596 92.058 290.923 92.058H291.875V88.18C291.744 88.152 291.609 88.1333 291.469 88.124C291.329 88.1053 291.142 88.096 290.909 88.096ZM304.404 88.236H300.316V97H299.154V87.2H304.404V88.236ZM304.613 92.1C304.613 90.4667 304.958 89.216 305.649 88.348C306.34 87.4707 307.324 87.032 308.603 87.032C309.294 87.032 309.891 87.1533 310.395 87.396C310.899 87.6387 311.314 87.984 311.641 88.432C311.977 88.8707 312.224 89.4027 312.383 90.028C312.542 90.644 312.621 91.3347 312.621 92.1C312.621 93.7333 312.271 94.9887 311.571 95.866C310.88 96.734 309.891 97.168 308.603 97.168C307.922 97.168 307.329 97.0467 306.825 96.804C306.33 96.5613 305.915 96.2207 305.579 95.782C305.252 95.334 305.01 94.802 304.851 94.186C304.692 93.5607 304.613 92.8653 304.613 92.1ZM305.845 92.1C305.845 92.6413 305.896 93.1547 305.999 93.64C306.111 94.1253 306.279 94.5547 306.503 94.928C306.727 95.292 307.012 95.586 307.357 95.81C307.712 96.0247 308.127 96.132 308.603 96.132C309.471 96.132 310.152 95.8053 310.647 95.152C311.142 94.4893 311.389 93.472 311.389 92.1C311.389 91.568 311.333 91.0593 311.221 90.574C311.118 90.0793 310.95 89.65 310.717 89.286C310.493 88.9127 310.204 88.6187 309.849 88.404C309.504 88.18 309.088 88.068 308.603 88.068C307.744 88.068 307.068 88.3993 306.573 89.062C306.088 89.7153 305.845 90.728 305.845 92.1ZM320.861 96.594C320.581 96.8087 320.227 96.958 319.797 97.042C319.368 97.126 318.911 97.168 318.425 97.168C317.837 97.168 317.287 97.07 316.773 96.874C316.26 96.6687 315.812 96.3607 315.429 95.95C315.047 95.5393 314.743 95.0167 314.519 94.382C314.295 93.738 314.183 92.9773 314.183 92.1C314.183 91.1853 314.305 90.4107 314.547 89.776C314.799 89.132 315.126 88.6093 315.527 88.208C315.938 87.7973 316.395 87.4987 316.899 87.312C317.403 87.1253 317.917 87.032 318.439 87.032C318.999 87.032 319.457 87.0647 319.811 87.13C320.166 87.186 320.469 87.2653 320.721 87.368L320.441 88.39C319.993 88.1753 319.354 88.068 318.523 88.068C318.141 88.068 317.763 88.138 317.389 88.278C317.016 88.418 316.68 88.6467 316.381 88.964C316.092 89.2813 315.859 89.6967 315.681 90.21C315.504 90.7233 315.415 91.3533 315.415 92.1C315.415 92.772 315.499 93.36 315.667 93.864C315.835 94.368 316.064 94.788 316.353 95.124C316.652 95.46 316.997 95.712 317.389 95.88C317.791 96.048 318.225 96.132 318.691 96.132C319.111 96.132 319.475 96.09 319.783 96.006C320.101 95.922 320.367 95.8147 320.581 95.684L320.861 96.594ZM328.751 88.236H325.699V97H324.537V88.236H321.485V87.2H328.751V88.236ZM336.181 90.364L336.265 89.244H336.209L335.607 90.392L330.875 97H330.189V87.2H331.351V93.92L331.253 95.026H331.309L331.925 93.878L336.657 87.2H337.343V97H336.181V90.364ZM345.584 92.506H340.88V97H339.718V87.2H340.88V91.47H345.584V87.2H346.746V97H345.584V92.506ZM355.117 90.364L355.201 89.244H355.145L354.543 90.392L349.811 97H349.125V87.2H350.287V93.92L350.189 95.026H350.245L350.861 93.878L355.593 87.2H356.279V97H355.117V90.364ZM366.69 98.806H365.892L365.682 97H358.654V87.2H359.816V95.964H364.226V87.2H365.388V95.964H366.69V98.806ZM377.906 89.44C377.906 89.6733 377.868 89.9113 377.794 90.154C377.719 90.3967 377.607 90.6253 377.458 90.84C377.308 91.0453 377.117 91.2273 376.884 91.386C376.65 91.5447 376.375 91.666 376.058 91.75V91.806C376.338 91.8527 376.604 91.932 376.856 92.044C377.117 92.156 377.346 92.31 377.542 92.506C377.738 92.702 377.896 92.94 378.018 93.22C378.139 93.5 378.2 93.8313 378.2 94.214C378.2 94.718 378.092 95.1567 377.878 95.53C377.672 95.894 377.397 96.1927 377.052 96.426C376.716 96.6593 376.328 96.832 375.89 96.944C375.451 97.056 375.003 97.112 374.546 97.112C374.387 97.112 374.2 97.112 373.986 97.112C373.771 97.112 373.547 97.1027 373.314 97.084C373.08 97.0747 372.847 97.056 372.614 97.028C372.38 97.0093 372.175 96.9767 371.998 96.93V87.284C372.343 87.228 372.744 87.1813 373.202 87.144C373.659 87.1067 374.158 87.088 374.7 87.088C375.064 87.088 375.432 87.1207 375.806 87.186C376.188 87.242 376.534 87.3587 376.842 87.536C377.15 87.704 377.402 87.942 377.598 88.25C377.803 88.558 377.906 88.9547 377.906 89.44ZM374.658 96.104C374.956 96.104 375.246 96.0713 375.526 96.006C375.806 95.9313 376.053 95.8193 376.268 95.67C376.482 95.5113 376.65 95.32 376.772 95.096C376.902 94.872 376.968 94.606 376.968 94.298C376.968 93.9153 376.888 93.6073 376.73 93.374C376.58 93.1407 376.38 92.9587 376.128 92.828C375.885 92.6973 375.61 92.6087 375.302 92.562C374.994 92.5153 374.686 92.492 374.378 92.492H373.16V96.006C373.225 96.0247 373.318 96.0387 373.44 96.048C373.561 96.0573 373.692 96.0667 373.832 96.076C373.972 96.0853 374.116 96.0947 374.266 96.104C374.415 96.104 374.546 96.104 374.658 96.104ZM373.888 91.512C374.046 91.512 374.238 91.5073 374.462 91.498C374.686 91.4887 374.872 91.4747 375.022 91.456C375.246 91.3813 375.456 91.2927 375.652 91.19C375.848 91.078 376.02 90.952 376.17 90.812C376.328 90.6627 376.45 90.4947 376.534 90.308C376.627 90.112 376.674 89.902 376.674 89.678C376.674 89.37 376.613 89.118 376.492 88.922C376.38 88.7167 376.226 88.5533 376.03 88.432C375.834 88.3107 375.61 88.2267 375.358 88.18C375.106 88.124 374.849 88.096 374.588 88.096C374.28 88.096 373.995 88.1053 373.734 88.124C373.482 88.1333 373.29 88.152 373.16 88.18V91.512H373.888ZM390.178 96.594C389.898 96.8087 389.543 96.958 389.114 97.042C388.684 97.126 388.227 97.168 387.742 97.168C387.154 97.168 386.603 97.07 386.09 96.874C385.576 96.6687 385.128 96.3607 384.746 95.95C384.363 95.5393 384.06 95.0167 383.836 94.382C383.612 93.738 383.5 92.9773 383.5 92.1C383.5 91.1853 383.621 90.4107 383.864 89.776C384.116 89.132 384.442 88.6093 384.844 88.208C385.254 87.7973 385.712 87.4987 386.216 87.312C386.72 87.1253 387.233 87.032 387.756 87.032C388.316 87.032 388.773 87.0647 389.128 87.13C389.482 87.186 389.786 87.2653 390.038 87.368L389.758 88.39C389.31 88.1753 388.67 88.068 387.84 88.068C387.457 88.068 387.079 88.138 386.706 88.278C386.332 88.418 385.996 88.6467 385.698 88.964C385.408 89.2813 385.175 89.6967 384.998 90.21C384.82 90.7233 384.732 91.3533 384.732 92.1C384.732 92.772 384.816 93.36 384.984 93.864C385.152 94.368 385.38 94.788 385.67 95.124C385.968 95.46 386.314 95.712 386.706 95.88C387.107 96.048 387.541 96.132 388.008 96.132C388.428 96.132 388.792 96.09 389.1 96.006C389.417 95.922 389.683 95.8147 389.898 95.684L390.178 96.594ZM391.904 87.2H397.238V88.236H393.066V91.442H396.888V92.478H393.066V95.964H397.308V97H391.904V87.2ZM407.194 98.806H406.396L406.186 97H399.312L399.102 98.806H398.29V95.964H399.284C399.358 95.8613 399.47 95.6233 399.62 95.25C399.778 94.8673 399.932 94.326 400.082 93.626C400.24 92.9167 400.38 92.0347 400.502 90.98C400.623 89.916 400.684 88.656 400.684 87.2H405.92V95.964H407.194V98.806ZM404.758 95.964V88.236H401.776C401.748 89.2627 401.692 90.1867 401.608 91.008C401.533 91.8293 401.44 92.5573 401.328 93.192C401.216 93.8173 401.09 94.3587 400.95 94.816C400.81 95.2733 400.665 95.656 400.516 95.964H404.758ZM408.041 92.1C408.041 90.4667 408.386 89.216 409.077 88.348C409.768 87.4707 410.752 87.032 412.031 87.032C412.722 87.032 413.319 87.1533 413.823 87.396C414.327 87.6387 414.742 87.984 415.069 88.432C415.405 88.8707 415.652 89.4027 415.811 90.028C415.97 90.644 416.049 91.3347 416.049 92.1C416.049 93.7333 415.699 94.9887 414.999 95.866C414.308 96.734 413.319 97.168 412.031 97.168C411.35 97.168 410.757 97.0467 410.253 96.804C409.758 96.5613 409.343 96.2207 409.007 95.782C408.68 95.334 408.438 94.802 408.279 94.186C408.12 93.5607 408.041 92.8653 408.041 92.1ZM409.273 92.1C409.273 92.6413 409.324 93.1547 409.427 93.64C409.539 94.1253 409.707 94.5547 409.931 94.928C410.155 95.292 410.44 95.586 410.785 95.81C411.14 96.0247 411.555 96.132 412.031 96.132C412.899 96.132 413.58 95.8053 414.075 95.152C414.57 94.4893 414.817 93.472 414.817 92.1C414.817 91.568 414.761 91.0593 414.649 90.574C414.546 90.0793 414.378 89.65 414.145 89.286C413.921 88.9127 413.632 88.6187 413.277 88.404C412.932 88.18 412.516 88.068 412.031 88.068C411.172 88.068 410.496 88.3993 410.001 89.062C409.516 89.7153 409.273 90.728 409.273 92.1ZM423.883 92.506H419.179V97H418.017V87.2H419.179V91.47H423.883V87.2H425.045V97H423.883V92.506ZM427.423 87.2H432.757V88.236H428.585V91.442H432.407V92.478H428.585V95.964H432.827V97H427.423V87.2Z" fill="#333333"/>
</svg>
