<svg width="223" height="20" viewBox="0 0 223 20" fill="none" xmlns="http://www.w3.org/2000/svg">
<path d="M11.5627 2.862H7.27872V15H4.40172V2.862H0.0967227V0.299999H11.5627V2.862ZM13.0613 0.299999H21.7763V2.862H15.9383V6.285H21.2513V8.847H15.9383V12.438H21.8813V15H13.0613V0.299999ZM31.7189 2.862H28.5899C28.5339 4.192 28.4709 5.403 28.4009 6.495C28.3309 7.587 28.2329 8.574 28.1069 9.456C27.9949 10.324 27.8409 11.094 27.6449 11.766C27.4489 12.438 27.1969 13.019 26.8889 13.509C26.6929 13.831 26.4689 14.097 26.2169 14.307C25.9789 14.517 25.7269 14.685 25.4609 14.811C25.1949 14.937 24.9289 15.021 24.6629 15.063C24.4109 15.119 24.1729 15.147 23.9489 15.147C23.6269 15.147 23.3539 15.119 23.1299 15.063C22.9199 15.021 22.7099 14.951 22.4999 14.853L22.8149 12.375C22.8989 12.403 22.9829 12.424 23.0669 12.438C23.1509 12.452 23.2349 12.459 23.3189 12.459C23.5429 12.459 23.7599 12.403 23.9699 12.291C24.1939 12.179 24.3829 11.99 24.5369 11.724C24.7469 11.416 24.9289 10.968 25.0829 10.38C25.2369 9.778 25.3699 9.015 25.4819 8.091C25.6079 7.167 25.7059 6.068 25.7759 4.794C25.8459 3.506 25.8949 2.008 25.9229 0.299999H34.5959V15H31.7189V2.862ZM37.8099 6.012C37.8099 5.522 37.9639 5.137 38.2719 4.857C38.5799 4.563 38.9859 4.416 39.4899 4.416C40.0219 4.416 40.4419 4.563 40.7499 4.857C41.0579 5.137 41.2119 5.522 41.2119 6.012C41.2119 6.502 41.0579 6.894 40.7499 7.188C40.4419 7.482 40.0219 7.629 39.4899 7.629C38.9859 7.629 38.5799 7.482 38.2719 7.188C37.9639 6.894 37.8099 6.502 37.8099 6.012ZM37.8099 13.614C37.8099 13.124 37.9639 12.739 38.2719 12.459C38.5799 12.165 38.9859 12.018 39.4899 12.018C40.0219 12.018 40.4419 12.165 40.7499 12.459C41.0579 12.739 41.2119 13.124 41.2119 13.614C41.2119 14.104 41.0579 14.496 40.7499 14.79C40.4419 15.084 40.0219 15.231 39.4899 15.231C38.9859 15.231 38.5799 15.084 38.2719 14.79C37.9639 14.496 37.8099 14.104 37.8099 13.614ZM47.7111 6.726H51.1131V3.177H53.5701V6.726H56.9931V9.078H53.5701V12.669H51.1131V9.078H47.7111V6.726ZM60.0663 15L64.8753 3.681L65.7993 2.652L64.5393 2.862H59.1423V0.299999H68.6133V1.098L62.7333 15H60.0663ZM74.5644 19.62C73.9204 18.948 73.3744 18.206 72.9264 17.394C72.4784 16.596 72.1144 15.777 71.8344 14.937C71.5684 14.083 71.3724 13.229 71.2464 12.375C71.1204 11.507 71.0574 10.681 71.0574 9.897C71.0574 9.127 71.1204 8.315 71.2464 7.461C71.3724 6.607 71.5754 5.753 71.8554 4.899C72.1354 4.031 72.4994 3.184 72.9474 2.358C73.4094 1.532 73.9694 0.762 74.6274 0.0479997L76.3914 1.182C75.9014 1.84 75.4884 2.526 75.1524 3.24C74.8304 3.954 74.5644 4.689 74.3544 5.445C74.1584 6.187 74.0114 6.936 73.9134 7.692C73.8294 8.448 73.7874 9.183 73.7874 9.897C73.7874 10.569 73.8364 11.283 73.9344 12.039C74.0324 12.795 74.1864 13.551 74.3964 14.307C74.6064 15.049 74.8794 15.777 75.2154 16.491C75.5514 17.205 75.9574 17.856 76.4334 18.444L74.5644 19.62ZM88.2805 10.905H85.9705V15H83.4295V10.905H77.0665V9.351L83.7235 0.194999H85.9705V8.721H88.2805V10.905ZM83.4295 5.508L83.6185 3.744H83.5345L82.8205 5.256L80.6365 8.091L79.5865 8.889L80.9305 8.721H83.4295V5.508ZM89.5275 4.899C89.5275 4.185 89.6325 3.527 89.8425 2.925C90.0665 2.323 90.3815 1.812 90.7875 1.392C91.2075 0.958 91.7115 0.621999 92.2995 0.383999C92.9015 0.131999 93.5875 0.00599903 94.3575 0.00599903C95.9395 0.00599903 97.1785 0.481999 98.0745 1.434C98.9845 2.372 99.4395 3.744 99.4395 5.55C99.4395 7.174 99.2295 8.581 98.8095 9.771C98.4035 10.947 97.8505 11.934 97.1505 12.732C96.4645 13.516 95.6665 14.118 94.7565 14.538C93.8465 14.958 92.8875 15.21 91.8795 15.294L91.2915 13.152C92.0615 13.054 92.7475 12.865 93.3495 12.585C93.9515 12.305 94.4695 11.962 94.9035 11.556C95.3375 11.136 95.6875 10.667 95.9535 10.149C96.2335 9.617 96.4295 9.05 96.5415 8.448C96.2055 8.812 95.8415 9.064 95.4495 9.204C95.0715 9.344 94.5605 9.414 93.9165 9.414C93.3845 9.414 92.8525 9.323 92.3205 9.141C91.8025 8.959 91.3335 8.686 90.9135 8.322C90.5075 7.944 90.1715 7.475 89.9055 6.915C89.6535 6.341 89.5275 5.669 89.5275 4.899ZM92.1735 4.752C92.1735 5.55 92.3975 6.152 92.8455 6.558C93.2935 6.964 93.8535 7.167 94.5255 7.167C95.0995 7.167 95.5685 7.076 95.9325 6.894C96.2965 6.712 96.5765 6.488 96.7725 6.222C96.8145 5.928 96.8355 5.648 96.8355 5.382C96.8355 4.99 96.7865 4.605 96.6885 4.227C96.5905 3.849 96.4365 3.513 96.2265 3.219C96.0305 2.925 95.7715 2.694 95.4495 2.526C95.1415 2.344 94.7705 2.253 94.3365 2.253C93.6505 2.253 93.1185 2.477 92.7405 2.925C92.3625 3.359 92.1735 3.968 92.1735 4.752ZM105.118 12.879C106.042 12.879 106.749 12.655 107.239 12.207C107.729 11.759 107.974 11.143 107.974 10.359C107.974 9.519 107.687 8.903 107.113 8.511C106.539 8.119 105.72 7.923 104.656 7.923L102.997 7.986V0.299999H110.221V2.862H105.349V5.697L106.21 5.613C106.896 5.641 107.512 5.767 108.058 5.991C108.618 6.215 109.094 6.53 109.486 6.936C109.878 7.328 110.179 7.811 110.389 8.385C110.599 8.945 110.704 9.575 110.704 10.275C110.704 11.101 110.564 11.829 110.284 12.459C110.004 13.089 109.612 13.614 109.108 14.034C108.618 14.454 108.037 14.769 107.365 14.979C106.693 15.189 105.958 15.294 105.16 15.294C104.53 15.294 103.928 15.238 103.354 15.126C102.794 15.028 102.318 14.888 101.926 14.706L102.661 12.438C102.983 12.578 103.333 12.69 103.711 12.774C104.103 12.844 104.572 12.879 105.118 12.879ZM114.45 0.0479997C115.122 0.719999 115.682 1.462 116.13 2.274C116.578 3.072 116.935 3.898 117.201 4.752C117.481 5.592 117.684 6.446 117.81 7.314C117.936 8.168 118.006 9.001 118.02 9.813C118.006 10.555 117.936 11.353 117.81 12.207C117.684 13.061 117.481 13.922 117.201 14.79C116.921 15.644 116.55 16.484 116.088 17.31C115.64 18.136 115.115 18.906 114.513 19.62L112.644 18.444C113.176 17.758 113.61 17.051 113.946 16.323C114.282 15.609 114.548 14.888 114.744 14.16C114.94 13.418 115.073 12.683 115.143 11.955C115.227 11.213 115.276 10.527 115.29 9.897C115.276 9.141 115.213 8.392 115.101 7.65C115.003 6.894 114.849 6.145 114.639 5.403C114.429 4.647 114.156 3.919 113.82 3.219C113.498 2.505 113.12 1.826 112.686 1.182L114.45 0.0479997ZM135.514 10.443C135.514 11.129 135.395 11.766 135.157 12.354C134.933 12.942 134.611 13.453 134.191 13.887C133.771 14.321 133.26 14.664 132.658 14.916C132.07 15.168 131.419 15.294 130.705 15.294C129.977 15.294 129.305 15.182 128.689 14.958C128.087 14.72 127.562 14.37 127.114 13.908C126.666 13.446 126.316 12.865 126.064 12.165C125.812 11.465 125.686 10.653 125.686 9.729C125.686 8.343 125.882 7.09 126.274 5.97C126.68 4.85 127.219 3.877 127.891 3.051C128.577 2.211 129.368 1.539 130.264 1.035C131.174 0.517 132.133 0.173999 133.141 0.00599903L133.75 2.169C133.05 2.281 132.406 2.498 131.818 2.82C131.23 3.142 130.705 3.527 130.243 3.975C129.795 4.423 129.41 4.927 129.088 5.487C128.78 6.033 128.563 6.6 128.437 7.188C128.717 6.838 129.081 6.544 129.529 6.306C129.977 6.054 130.537 5.928 131.209 5.928C131.839 5.928 132.42 6.026 132.952 6.222C133.484 6.418 133.939 6.712 134.317 7.104C134.695 7.482 134.989 7.951 135.199 8.511C135.409 9.071 135.514 9.715 135.514 10.443ZM132.868 10.59C132.868 9.022 132.098 8.238 130.558 8.238C129.998 8.238 129.522 8.364 129.13 8.616C128.752 8.868 128.486 9.162 128.332 9.498C128.304 9.652 128.29 9.785 128.29 9.897C128.29 10.009 128.29 10.121 128.29 10.233C128.29 10.569 128.339 10.905 128.437 11.241C128.535 11.563 128.675 11.857 128.857 12.123C129.053 12.375 129.298 12.585 129.592 12.753C129.886 12.907 130.236 12.984 130.642 12.984C131.3 12.984 131.832 12.76 132.238 12.312C132.658 11.864 132.868 11.29 132.868 10.59ZM147.429 10.443C147.429 11.129 147.31 11.766 147.072 12.354C146.848 12.942 146.526 13.453 146.106 13.887C145.686 14.321 145.175 14.664 144.573 14.916C143.985 15.168 143.334 15.294 142.62 15.294C141.892 15.294 141.22 15.182 140.604 14.958C140.002 14.72 139.477 14.37 139.029 13.908C138.581 13.446 138.231 12.865 137.979 12.165C137.727 11.465 137.601 10.653 137.601 9.729C137.601 8.343 137.797 7.09 138.189 5.97C138.595 4.85 139.134 3.877 139.806 3.051C140.492 2.211 141.283 1.539 142.179 1.035C143.089 0.517 144.048 0.173999 145.056 0.00599903L145.665 2.169C144.965 2.281 144.321 2.498 143.733 2.82C143.145 3.142 142.62 3.527 142.158 3.975C141.71 4.423 141.325 4.927 141.003 5.487C140.695 6.033 140.478 6.6 140.352 7.188C140.632 6.838 140.996 6.544 141.444 6.306C141.892 6.054 142.452 5.928 143.124 5.928C143.754 5.928 144.335 6.026 144.867 6.222C145.399 6.418 145.854 6.712 146.232 7.104C146.61 7.482 146.904 7.951 147.114 8.511C147.324 9.071 147.429 9.715 147.429 10.443ZM144.783 10.59C144.783 9.022 144.013 8.238 142.473 8.238C141.913 8.238 141.437 8.364 141.045 8.616C140.667 8.868 140.401 9.162 140.247 9.498C140.219 9.652 140.205 9.785 140.205 9.897C140.205 10.009 140.205 10.121 140.205 10.233C140.205 10.569 140.254 10.905 140.352 11.241C140.45 11.563 140.59 11.857 140.772 12.123C140.968 12.375 141.213 12.585 141.507 12.753C141.801 12.907 142.151 12.984 142.557 12.984C143.215 12.984 143.747 12.76 144.153 12.312C144.573 11.864 144.783 11.29 144.783 10.59ZM159.344 10.443C159.344 11.129 159.225 11.766 158.987 12.354C158.763 12.942 158.441 13.453 158.021 13.887C157.601 14.321 157.09 14.664 156.488 14.916C155.9 15.168 155.249 15.294 154.535 15.294C153.807 15.294 153.135 15.182 152.519 14.958C151.917 14.72 151.392 14.37 150.944 13.908C150.496 13.446 150.146 12.865 149.894 12.165C149.642 11.465 149.516 10.653 149.516 9.729C149.516 8.343 149.712 7.09 150.104 5.97C150.51 4.85 151.049 3.877 151.721 3.051C152.407 2.211 153.198 1.539 154.094 1.035C155.004 0.517 155.963 0.173999 156.971 0.00599903L157.58 2.169C156.88 2.281 156.236 2.498 155.648 2.82C155.06 3.142 154.535 3.527 154.073 3.975C153.625 4.423 153.24 4.927 152.918 5.487C152.61 6.033 152.393 6.6 152.267 7.188C152.547 6.838 152.911 6.544 153.359 6.306C153.807 6.054 154.367 5.928 155.039 5.928C155.669 5.928 156.25 6.026 156.782 6.222C157.314 6.418 157.769 6.712 158.147 7.104C158.525 7.482 158.819 7.951 159.029 8.511C159.239 9.071 159.344 9.715 159.344 10.443ZM156.698 10.59C156.698 9.022 155.928 8.238 154.388 8.238C153.828 8.238 153.352 8.364 152.96 8.616C152.582 8.868 152.316 9.162 152.162 9.498C152.134 9.652 152.12 9.785 152.12 9.897C152.12 10.009 152.12 10.121 152.12 10.233C152.12 10.569 152.169 10.905 152.267 11.241C152.365 11.563 152.505 11.857 152.687 12.123C152.883 12.375 153.128 12.585 153.422 12.753C153.716 12.907 154.066 12.984 154.472 12.984C155.13 12.984 155.662 12.76 156.068 12.312C156.488 11.864 156.698 11.29 156.698 10.59ZM161.473 7.755H166.744V10.17H161.473V7.755ZM168.747 7.629C168.747 5.053 169.188 3.142 170.07 1.896C170.952 0.635999 172.219 0.00599903 173.871 0.00599903C175.635 0.00599903 176.93 0.628999 177.756 1.875C178.582 3.107 178.995 5.025 178.995 7.629C178.995 10.219 178.547 12.144 177.651 13.404C176.769 14.664 175.502 15.294 173.85 15.294C172.1 15.294 170.812 14.636 169.986 13.32C169.16 11.99 168.747 10.093 168.747 7.629ZM171.477 7.629C171.477 9.337 171.659 10.66 172.023 11.598C172.401 12.522 173.017 12.984 173.871 12.984C174.697 12.984 175.299 12.557 175.677 11.703C176.069 10.849 176.265 9.491 176.265 7.629C176.265 5.935 176.083 4.626 175.719 3.702C175.355 2.778 174.732 2.316 173.85 2.316C173.01 2.316 172.401 2.75 172.023 3.618C171.659 4.486 171.477 5.823 171.477 7.629ZM181.943 12.69H184.862V4.395L185.177 2.967L184.169 4.206L182.3 5.487L181.145 3.912L185.933 0.0479997H187.466V12.69H190.322V15H181.943V12.69ZM192.871 7.755H198.142V10.17H192.871V7.755ZM210.224 10.443C210.224 11.129 210.105 11.766 209.867 12.354C209.643 12.942 209.321 13.453 208.901 13.887C208.481 14.321 207.97 14.664 207.368 14.916C206.78 15.168 206.129 15.294 205.415 15.294C204.687 15.294 204.015 15.182 203.399 14.958C202.797 14.72 202.272 14.37 201.824 13.908C201.376 13.446 201.026 12.865 200.774 12.165C200.522 11.465 200.396 10.653 200.396 9.729C200.396 8.343 200.592 7.09 200.984 5.97C201.39 4.85 201.929 3.877 202.601 3.051C203.287 2.211 204.078 1.539 204.974 1.035C205.884 0.517 206.843 0.173999 207.851 0.00599903L208.46 2.169C207.76 2.281 207.116 2.498 206.528 2.82C205.94 3.142 205.415 3.527 204.953 3.975C204.505 4.423 204.12 4.927 203.798 5.487C203.49 6.033 203.273 6.6 203.147 7.188C203.427 6.838 203.791 6.544 204.239 6.306C204.687 6.054 205.247 5.928 205.919 5.928C206.549 5.928 207.13 6.026 207.662 6.222C208.194 6.418 208.649 6.712 209.027 7.104C209.405 7.482 209.699 7.951 209.909 8.511C210.119 9.071 210.224 9.715 210.224 10.443ZM207.578 10.59C207.578 9.022 206.808 8.238 205.268 8.238C204.708 8.238 204.232 8.364 203.84 8.616C203.462 8.868 203.196 9.162 203.042 9.498C203.014 9.652 203 9.785 203 9.897C203 10.009 203 10.121 203 10.233C203 10.569 203.049 10.905 203.147 11.241C203.245 11.563 203.385 11.857 203.567 12.123C203.763 12.375 204.008 12.585 204.302 12.753C204.596 12.907 204.946 12.984 205.352 12.984C206.01 12.984 206.542 12.76 206.948 12.312C207.368 11.864 207.578 11.29 207.578 10.59ZM222.139 10.443C222.139 11.129 222.02 11.766 221.782 12.354C221.558 12.942 221.236 13.453 220.816 13.887C220.396 14.321 219.885 14.664 219.283 14.916C218.695 15.168 218.044 15.294 217.33 15.294C216.602 15.294 215.93 15.182 215.314 14.958C214.712 14.72 214.187 14.37 213.739 13.908C213.291 13.446 212.941 12.865 212.689 12.165C212.437 11.465 212.311 10.653 212.311 9.729C212.311 8.343 212.507 7.09 212.899 5.97C213.305 4.85 213.844 3.877 214.516 3.051C215.202 2.211 215.993 1.539 216.889 1.035C217.799 0.517 218.758 0.173999 219.766 0.00599903L220.375 2.169C219.675 2.281 219.031 2.498 218.443 2.82C217.855 3.142 217.33 3.527 216.868 3.975C216.42 4.423 216.035 4.927 215.713 5.487C215.405 6.033 215.188 6.6 215.062 7.188C215.342 6.838 215.706 6.544 216.154 6.306C216.602 6.054 217.162 5.928 217.834 5.928C218.464 5.928 219.045 6.026 219.577 6.222C220.109 6.418 220.564 6.712 220.942 7.104C221.32 7.482 221.614 7.951 221.824 8.511C222.034 9.071 222.139 9.715 222.139 10.443ZM219.493 10.59C219.493 9.022 218.723 8.238 217.183 8.238C216.623 8.238 216.147 8.364 215.755 8.616C215.377 8.868 215.111 9.162 214.957 9.498C214.929 9.652 214.915 9.785 214.915 9.897C214.915 10.009 214.915 10.121 214.915 10.233C214.915 10.569 214.964 10.905 215.062 11.241C215.16 11.563 215.3 11.857 215.482 12.123C215.678 12.375 215.923 12.585 216.217 12.753C216.511 12.907 216.861 12.984 217.267 12.984C217.925 12.984 218.457 12.76 218.863 12.312C219.283 11.864 219.493 11.29 219.493 10.59Z" fill="black"/>
</svg>
